<svg version="1.1" xmlns="http://www.w3.org/2000/svg" xmlns:xlink="http://www.w3.org/1999/xlink" stroke-linecap="round" stroke-linejoin="round" stroke-width="0" fill-rule="evenodd" clip-rule="evenodd" id="KB11PyIVVIc1bbMxdEKR_top" viewBox="153500 -125000 51500 87500" width="51.5mm" height="87.5mm" class="w-100 h-100"><defs><style>.KB11PyIVVIc1bbMxdEKR_fr4 {color: #666666;}
.KB11PyIVVIc1bbMxdEKR_cu {color: #cccccc;}
.KB11PyIVVIc1bbMxdEKR_cf {color: #cc9933;}
.KB11PyIVVIc1bbMxdEKR_sm {color: #004200; opacity: 0.75;}
.KB11PyIVVIc1bbMxdEKR_ss {color: #ffffff;}
.KB11PyIVVIc1bbMxdEKR_sp {color: #999999;}
.KB11PyIVVIc1bbMxdEKR_out {color: #000000;}</style><g id="YagDzE2s5_t1fdr0F9Mh_pad-10"><polygon points="-600,-600 600,-600 600,600 -600,600"/><circle cx="-600" cy="-600" r="250"/><circle cx="600" cy="-600" r="250"/><circle cx="600" cy="600" r="250"/><circle cx="-600" cy="600" r="250"/><polygon points="-600,-850 600,-850 600,-350 -600,-350"/><polygon points="850,-600 850,600 350,600 350,-600"/><polygon points="600,350 -600,350 -600,850 600,850"/><polygon points="-350,600 -350,-600 -850,-600 -850,600"/></g><circle cx="0" cy="0" r="850" id="YagDzE2s5_t1fdr0F9Mh_pad-11"/><rect x="-850" y="-850" width="1700" height="1700" id="YagDzE2s5_t1fdr0F9Mh_pad-12"/><rect x="-850" y="-850" width="1700" height="1700" rx="850" ry="850" id="YagDzE2s5_t1fdr0F9Mh_pad-13"/><rect x="-675" y="-675" width="1350" height="1350" id="YagDzE2s5_t1fdr0F9Mh_pad-14"/><rect x="-675" y="-675" width="1350" height="1350" rx="675" ry="675" id="YagDzE2s5_t1fdr0F9Mh_pad-15"/><g id="l08_yhadSQH5-4_rmPeZ_pad-10"><polygon points="-600,-600 600,-600 600,600 -600,600"/><circle cx="-600" cy="-600" r="250"/><circle cx="600" cy="-600" r="250"/><circle cx="600" cy="600" r="250"/><circle cx="-600" cy="600" r="250"/><polygon points="-600,-850 600,-850 600,-350 -600,-350"/><polygon points="850,-600 850,600 350,600 350,-600"/><polygon points="600,350 -600,350 -600,850 600,850"/><polygon points="-350,600 -350,-600 -850,-600 -850,600"/></g><circle cx="0" cy="0" r="850" id="l08_yhadSQH5-4_rmPeZ_pad-11"/><rect x="-850" y="-850" width="1700" height="1700" id="l08_yhadSQH5-4_rmPeZ_pad-12"/><rect x="-850" y="-850" width="1700" height="1700" rx="850" ry="850" id="l08_yhadSQH5-4_rmPeZ_pad-13"/><rect x="-675" y="-675" width="1350" height="1350" id="l08_yhadSQH5-4_rmPeZ_pad-14"/><rect x="-675" y="-675" width="1350" height="1350" rx="675" ry="675" id="l08_yhadSQH5-4_rmPeZ_pad-15"/><circle cx="0" cy="0" r="15.75" id="blREFLeGcW0ShVphH_ZX_pad-1"/><circle cx="0" cy="0" r="19.7" id="blREFLeGcW0ShVphH_ZX_pad-2"/><g id="KB11PyIVVIc1bbMxdEKR_top_silkscreen"><path d="M 196516.666 -44154.819 196516.666 -44869.104 196469.047 -45011.961 196373.809 -45107.2 196230.952 -45154.819 196135.714 -45154.819 M 196945.238 -44250.057 196992.857 -44202.438 197088.095 -44154.819 197326.19 -44154.819 197421.428 -44202.438 197469.047 -44250.057 197516.666 -44345.295 197516.666 -44440.533 197469.047 -44583.39 196897.619 -45154.819 197516.666 -45154.819 M 185904.819 -49333.333 186619.104 -49333.333 186761.961 -49380.952 186857.2 -49476.19 186904.819 -49619.047 186904.819 -49714.285 M 185904.819 -48952.38 185904.819 -48333.333 186285.771 -48666.666 186285.771 -48523.809 186333.39 -48428.571 186381.009 -48380.952 186476.247 -48333.333 186714.342 -48333.333 186809.58 -48380.952 186857.2 -48428.571 186904.819 -48523.809 186904.819 -48809.523 186857.2 -48904.761 186809.58 -48952.38" fill="none" stroke-width="150"/><path d="M 190900 -50300 190900 -51300 191900 -50800 190900 -50300 M 192290 -45590 201410 -45590 M 192290 -79230 193600 -79230 M 192290 -116970 192290 -45590 M 193600 -46890 200100 -46890 M 193600 -79230 193600 -46890 M 193600 -83330 192290 -83330 M 193600 -83330 193600 -83330 M 193600 -115670 193600 -83330 M 200100 -46890 200100 -115670 193600 -115670 M 201410 -45590 201410 -116970 192290 -116970 M 175170 -47670 175170 -50330 M 182850 -47670 175170 -47670 M 182850 -47670 182850 -50330 175170 -50330 M 184120 -47670 185450 -47670 185450 -49000" fill="none" stroke-width="120"/></g><g id="KB11PyIVVIc1bbMxdEKR_top_soldermask"><use xlink:href="#YagDzE2s5_t1fdr0F9Mh_pad-10" x="195580" y="-50800"/><use xlink:href="#YagDzE2s5_t1fdr0F9Mh_pad-11" x="198120" y="-50800"/><use xlink:href="#YagDzE2s5_t1fdr0F9Mh_pad-11" x="195580" y="-53340"/><use xlink:href="#YagDzE2s5_t1fdr0F9Mh_pad-11" x="198120" y="-53340"/><use xlink:href="#YagDzE2s5_t1fdr0F9Mh_pad-11" x="195580" y="-55880"/><use xlink:href="#YagDzE2s5_t1fdr0F9Mh_pad-11" x="198120" y="-55880"/><use xlink:href="#YagDzE2s5_t1fdr0F9Mh_pad-11" x="195580" y="-58420"/><use xlink:href="#YagDzE2s5_t1fdr0F9Mh_pad-11" x="198120" y="-58420"/><use xlink:href="#YagDzE2s5_t1fdr0F9Mh_pad-11" x="195580" y="-60960"/><use xlink:href="#YagDzE2s5_t1fdr0F9Mh_pad-11" x="198120" y="-60960"/><use xlink:href="#YagDzE2s5_t1fdr0F9Mh_pad-11" x="195580" y="-63500"/><use xlink:href="#YagDzE2s5_t1fdr0F9Mh_pad-11" x="198120" y="-63500"/><use xlink:href="#YagDzE2s5_t1fdr0F9Mh_pad-11" x="195580" y="-66040"/><use xlink:href="#YagDzE2s5_t1fdr0F9Mh_pad-11" x="198120" y="-66040"/><use xlink:href="#YagDzE2s5_t1fdr0F9Mh_pad-11" x="195580" y="-68580"/><use xlink:href="#YagDzE2s5_t1fdr0F9Mh_pad-11" x="198120" y="-68580"/><use xlink:href="#YagDzE2s5_t1fdr0F9Mh_pad-11" x="195580" y="-71120"/><use xlink:href="#YagDzE2s5_t1fdr0F9Mh_pad-11" x="198120" y="-71120"/><use xlink:href="#YagDzE2s5_t1fdr0F9Mh_pad-11" x="195580" y="-73660"/><use xlink:href="#YagDzE2s5_t1fdr0F9Mh_pad-11" x="198120" y="-73660"/><use xlink:href="#YagDzE2s5_t1fdr0F9Mh_pad-11" x="195580" y="-76200"/><use xlink:href="#YagDzE2s5_t1fdr0F9Mh_pad-11" x="198120" y="-76200"/><use xlink:href="#YagDzE2s5_t1fdr0F9Mh_pad-11" x="195580" y="-78740"/><use xlink:href="#YagDzE2s5_t1fdr0F9Mh_pad-11" x="198120" y="-78740"/><use xlink:href="#YagDzE2s5_t1fdr0F9Mh_pad-11" x="195580" y="-81280"/><use xlink:href="#YagDzE2s5_t1fdr0F9Mh_pad-11" x="198120" y="-81280"/><use xlink:href="#YagDzE2s5_t1fdr0F9Mh_pad-11" x="195580" y="-83820"/><use xlink:href="#YagDzE2s5_t1fdr0F9Mh_pad-11" x="198120" y="-83820"/><use xlink:href="#YagDzE2s5_t1fdr0F9Mh_pad-11" x="195580" y="-86360"/><use xlink:href="#YagDzE2s5_t1fdr0F9Mh_pad-11" x="198120" y="-86360"/><use xlink:href="#YagDzE2s5_t1fdr0F9Mh_pad-11" x="195580" y="-88900"/><use xlink:href="#YagDzE2s5_t1fdr0F9Mh_pad-11" x="198120" y="-88900"/><use xlink:href="#YagDzE2s5_t1fdr0F9Mh_pad-11" x="195580" y="-91440"/><use xlink:href="#YagDzE2s5_t1fdr0F9Mh_pad-11" x="198120" y="-91440"/><use xlink:href="#YagDzE2s5_t1fdr0F9Mh_pad-11" x="195580" y="-93980"/><use xlink:href="#YagDzE2s5_t1fdr0F9Mh_pad-11" x="198120" y="-93980"/><use xlink:href="#YagDzE2s5_t1fdr0F9Mh_pad-11" x="195580" y="-96520"/><use xlink:href="#YagDzE2s5_t1fdr0F9Mh_pad-11" x="198120" y="-96520"/><use xlink:href="#YagDzE2s5_t1fdr0F9Mh_pad-11" x="195580" y="-99060"/><use xlink:href="#YagDzE2s5_t1fdr0F9Mh_pad-11" x="198120" y="-99060"/><use xlink:href="#YagDzE2s5_t1fdr0F9Mh_pad-11" x="195580" y="-101600"/><use xlink:href="#YagDzE2s5_t1fdr0F9Mh_pad-11" x="198120" y="-101600"/><use xlink:href="#YagDzE2s5_t1fdr0F9Mh_pad-11" x="195580" y="-104140"/><use xlink:href="#YagDzE2s5_t1fdr0F9Mh_pad-11" x="198120" y="-104140"/><use xlink:href="#YagDzE2s5_t1fdr0F9Mh_pad-11" x="195580" y="-106680"/><use xlink:href="#YagDzE2s5_t1fdr0F9Mh_pad-11" x="198120" y="-106680"/><use xlink:href="#YagDzE2s5_t1fdr0F9Mh_pad-11" x="195580" y="-109220"/><use xlink:href="#YagDzE2s5_t1fdr0F9Mh_pad-11" x="198120" y="-109220"/><use xlink:href="#YagDzE2s5_t1fdr0F9Mh_pad-11" x="195580" y="-111760"/><use xlink:href="#YagDzE2s5_t1fdr0F9Mh_pad-11" x="198120" y="-111760"/><use xlink:href="#YagDzE2s5_t1fdr0F9Mh_pad-12" x="184120" y="-49000"/><use xlink:href="#YagDzE2s5_t1fdr0F9Mh_pad-13" x="181580" y="-49000"/><use xlink:href="#YagDzE2s5_t1fdr0F9Mh_pad-13" x="179040" y="-49000"/><use xlink:href="#YagDzE2s5_t1fdr0F9Mh_pad-13" x="176500" y="-49000"/><use xlink:href="#YagDzE2s5_t1fdr0F9Mh_pad-14" x="166500" y="-62000"/><use xlink:href="#YagDzE2s5_t1fdr0F9Mh_pad-15" x="164500" y="-62000"/><use xlink:href="#YagDzE2s5_t1fdr0F9Mh_pad-15" x="166500" y="-64000"/><use xlink:href="#YagDzE2s5_t1fdr0F9Mh_pad-15" x="164500" y="-64000"/><use xlink:href="#YagDzE2s5_t1fdr0F9Mh_pad-15" x="166500" y="-66000"/><use xlink:href="#YagDzE2s5_t1fdr0F9Mh_pad-15" x="164500" y="-66000"/><use xlink:href="#YagDzE2s5_t1fdr0F9Mh_pad-15" x="166500" y="-68000"/><use xlink:href="#YagDzE2s5_t1fdr0F9Mh_pad-15" x="164500" y="-68000"/><use xlink:href="#YagDzE2s5_t1fdr0F9Mh_pad-15" x="166500" y="-70000"/><use xlink:href="#YagDzE2s5_t1fdr0F9Mh_pad-15" x="164500" y="-70000"/><use xlink:href="#YagDzE2s5_t1fdr0F9Mh_pad-15" x="166500" y="-72000"/><use xlink:href="#YagDzE2s5_t1fdr0F9Mh_pad-15" x="164500" y="-72000"/><use xlink:href="#YagDzE2s5_t1fdr0F9Mh_pad-15" x="166500" y="-74000"/><use xlink:href="#YagDzE2s5_t1fdr0F9Mh_pad-15" x="164500" y="-74000"/><use xlink:href="#YagDzE2s5_t1fdr0F9Mh_pad-15" x="166500" y="-76000"/><use xlink:href="#YagDzE2s5_t1fdr0F9Mh_pad-15" x="164500" y="-76000"/><use xlink:href="#YagDzE2s5_t1fdr0F9Mh_pad-15" x="166500" y="-78000"/><use xlink:href="#YagDzE2s5_t1fdr0F9Mh_pad-15" x="164500" y="-78000"/><use xlink:href="#YagDzE2s5_t1fdr0F9Mh_pad-15" x="166500" y="-80000"/><use xlink:href="#YagDzE2s5_t1fdr0F9Mh_pad-15" x="164500" y="-80000"/><use xlink:href="#YagDzE2s5_t1fdr0F9Mh_pad-15" x="166500" y="-82000"/><use xlink:href="#YagDzE2s5_t1fdr0F9Mh_pad-15" x="164500" y="-82000"/><use xlink:href="#YagDzE2s5_t1fdr0F9Mh_pad-15" x="166500" y="-84000"/><use xlink:href="#YagDzE2s5_t1fdr0F9Mh_pad-15" x="164500" y="-84000"/><use xlink:href="#YagDzE2s5_t1fdr0F9Mh_pad-15" x="166500" y="-86000"/><use xlink:href="#YagDzE2s5_t1fdr0F9Mh_pad-15" x="164500" y="-86000"/><use xlink:href="#YagDzE2s5_t1fdr0F9Mh_pad-15" x="166500" y="-88000"/><use xlink:href="#YagDzE2s5_t1fdr0F9Mh_pad-15" x="164500" y="-88000"/><use xlink:href="#YagDzE2s5_t1fdr0F9Mh_pad-15" x="166500" y="-90000"/><use xlink:href="#YagDzE2s5_t1fdr0F9Mh_pad-15" x="164500" y="-90000"/><use xlink:href="#YagDzE2s5_t1fdr0F9Mh_pad-15" x="166500" y="-92000"/><use xlink:href="#YagDzE2s5_t1fdr0F9Mh_pad-15" x="164500" y="-92000"/><use xlink:href="#YagDzE2s5_t1fdr0F9Mh_pad-15" x="166500" y="-94000"/><use xlink:href="#YagDzE2s5_t1fdr0F9Mh_pad-15" x="164500" y="-94000"/><use xlink:href="#YagDzE2s5_t1fdr0F9Mh_pad-15" x="166500" y="-96000"/><use xlink:href="#YagDzE2s5_t1fdr0F9Mh_pad-15" x="164500" y="-96000"/><use xlink:href="#YagDzE2s5_t1fdr0F9Mh_pad-15" x="166500" y="-98000"/><use xlink:href="#YagDzE2s5_t1fdr0F9Mh_pad-15" x="164500" y="-98000"/><use xlink:href="#YagDzE2s5_t1fdr0F9Mh_pad-15" x="166500" y="-100000"/><use xlink:href="#YagDzE2s5_t1fdr0F9Mh_pad-15" x="164500" y="-100000"/></g><g id="KB11PyIVVIc1bbMxdEKR_top_copper"><use xlink:href="#l08_yhadSQH5-4_rmPeZ_pad-10" x="195580" y="-50800"/><use xlink:href="#l08_yhadSQH5-4_rmPeZ_pad-11" x="198120" y="-50800"/><use xlink:href="#l08_yhadSQH5-4_rmPeZ_pad-11" x="195580" y="-53340"/><use xlink:href="#l08_yhadSQH5-4_rmPeZ_pad-11" x="198120" y="-53340"/><use xlink:href="#l08_yhadSQH5-4_rmPeZ_pad-11" x="195580" y="-55880"/><use xlink:href="#l08_yhadSQH5-4_rmPeZ_pad-11" x="198120" y="-55880"/><use xlink:href="#l08_yhadSQH5-4_rmPeZ_pad-11" x="195580" y="-58420"/><use xlink:href="#l08_yhadSQH5-4_rmPeZ_pad-11" x="198120" y="-58420"/><use xlink:href="#l08_yhadSQH5-4_rmPeZ_pad-11" x="195580" y="-60960"/><use xlink:href="#l08_yhadSQH5-4_rmPeZ_pad-11" x="198120" y="-60960"/><use xlink:href="#l08_yhadSQH5-4_rmPeZ_pad-11" x="195580" y="-63500"/><use xlink:href="#l08_yhadSQH5-4_rmPeZ_pad-11" x="198120" y="-63500"/><use xlink:href="#l08_yhadSQH5-4_rmPeZ_pad-11" x="195580" y="-66040"/><use xlink:href="#l08_yhadSQH5-4_rmPeZ_pad-11" x="198120" y="-66040"/><use xlink:href="#l08_yhadSQH5-4_rmPeZ_pad-11" x="195580" y="-68580"/><use xlink:href="#l08_yhadSQH5-4_rmPeZ_pad-11" x="198120" y="-68580"/><use xlink:href="#l08_yhadSQH5-4_rmPeZ_pad-11" x="195580" y="-71120"/><use xlink:href="#l08_yhadSQH5-4_rmPeZ_pad-11" x="198120" y="-71120"/><use xlink:href="#l08_yhadSQH5-4_rmPeZ_pad-11" x="195580" y="-73660"/><use xlink:href="#l08_yhadSQH5-4_rmPeZ_pad-11" x="198120" y="-73660"/><use xlink:href="#l08_yhadSQH5-4_rmPeZ_pad-11" x="195580" y="-76200"/><use xlink:href="#l08_yhadSQH5-4_rmPeZ_pad-11" x="198120" y="-76200"/><use xlink:href="#l08_yhadSQH5-4_rmPeZ_pad-11" x="195580" y="-78740"/><use xlink:href="#l08_yhadSQH5-4_rmPeZ_pad-11" x="198120" y="-78740"/><use xlink:href="#l08_yhadSQH5-4_rmPeZ_pad-11" x="195580" y="-81280"/><use xlink:href="#l08_yhadSQH5-4_rmPeZ_pad-11" x="198120" y="-81280"/><use xlink:href="#l08_yhadSQH5-4_rmPeZ_pad-11" x="195580" y="-83820"/><use xlink:href="#l08_yhadSQH5-4_rmPeZ_pad-11" x="198120" y="-83820"/><use xlink:href="#l08_yhadSQH5-4_rmPeZ_pad-11" x="195580" y="-86360"/><use xlink:href="#l08_yhadSQH5-4_rmPeZ_pad-11" x="198120" y="-86360"/><use xlink:href="#l08_yhadSQH5-4_rmPeZ_pad-11" x="195580" y="-88900"/><use xlink:href="#l08_yhadSQH5-4_rmPeZ_pad-11" x="198120" y="-88900"/><use xlink:href="#l08_yhadSQH5-4_rmPeZ_pad-11" x="195580" y="-91440"/><use xlink:href="#l08_yhadSQH5-4_rmPeZ_pad-11" x="198120" y="-91440"/><use xlink:href="#l08_yhadSQH5-4_rmPeZ_pad-11" x="195580" y="-93980"/><use xlink:href="#l08_yhadSQH5-4_rmPeZ_pad-11" x="198120" y="-93980"/><use xlink:href="#l08_yhadSQH5-4_rmPeZ_pad-11" x="195580" y="-96520"/><use xlink:href="#l08_yhadSQH5-4_rmPeZ_pad-11" x="198120" y="-96520"/><use xlink:href="#l08_yhadSQH5-4_rmPeZ_pad-11" x="195580" y="-99060"/><use xlink:href="#l08_yhadSQH5-4_rmPeZ_pad-11" x="198120" y="-99060"/><use xlink:href="#l08_yhadSQH5-4_rmPeZ_pad-11" x="195580" y="-101600"/><use xlink:href="#l08_yhadSQH5-4_rmPeZ_pad-11" x="198120" y="-101600"/><use xlink:href="#l08_yhadSQH5-4_rmPeZ_pad-11" x="195580" y="-104140"/><use xlink:href="#l08_yhadSQH5-4_rmPeZ_pad-11" x="198120" y="-104140"/><use xlink:href="#l08_yhadSQH5-4_rmPeZ_pad-11" x="195580" y="-106680"/><use xlink:href="#l08_yhadSQH5-4_rmPeZ_pad-11" x="198120" y="-106680"/><use xlink:href="#l08_yhadSQH5-4_rmPeZ_pad-11" x="195580" y="-109220"/><use xlink:href="#l08_yhadSQH5-4_rmPeZ_pad-11" x="198120" y="-109220"/><use xlink:href="#l08_yhadSQH5-4_rmPeZ_pad-11" x="195580" y="-111760"/><use xlink:href="#l08_yhadSQH5-4_rmPeZ_pad-11" x="198120" y="-111760"/><use xlink:href="#l08_yhadSQH5-4_rmPeZ_pad-12" x="184120" y="-49000"/><use xlink:href="#l08_yhadSQH5-4_rmPeZ_pad-13" x="181580" y="-49000"/><use xlink:href="#l08_yhadSQH5-4_rmPeZ_pad-13" x="179040" y="-49000"/><use xlink:href="#l08_yhadSQH5-4_rmPeZ_pad-13" x="176500" y="-49000"/><use xlink:href="#l08_yhadSQH5-4_rmPeZ_pad-14" x="166500" y="-62000"/><use xlink:href="#l08_yhadSQH5-4_rmPeZ_pad-15" x="164500" y="-62000"/><use xlink:href="#l08_yhadSQH5-4_rmPeZ_pad-15" x="166500" y="-64000"/><use xlink:href="#l08_yhadSQH5-4_rmPeZ_pad-15" x="164500" y="-64000"/><use xlink:href="#l08_yhadSQH5-4_rmPeZ_pad-15" x="166500" y="-66000"/><use xlink:href="#l08_yhadSQH5-4_rmPeZ_pad-15" x="164500" y="-66000"/><use xlink:href="#l08_yhadSQH5-4_rmPeZ_pad-15" x="166500" y="-68000"/><use xlink:href="#l08_yhadSQH5-4_rmPeZ_pad-15" x="164500" y="-68000"/><use xlink:href="#l08_yhadSQH5-4_rmPeZ_pad-15" x="166500" y="-70000"/><use xlink:href="#l08_yhadSQH5-4_rmPeZ_pad-15" x="164500" y="-70000"/><use xlink:href="#l08_yhadSQH5-4_rmPeZ_pad-15" x="166500" y="-72000"/><use xlink:href="#l08_yhadSQH5-4_rmPeZ_pad-15" x="164500" y="-72000"/><use xlink:href="#l08_yhadSQH5-4_rmPeZ_pad-15" x="166500" y="-74000"/><use xlink:href="#l08_yhadSQH5-4_rmPeZ_pad-15" x="164500" y="-74000"/><use xlink:href="#l08_yhadSQH5-4_rmPeZ_pad-15" x="166500" y="-76000"/><use xlink:href="#l08_yhadSQH5-4_rmPeZ_pad-15" x="164500" y="-76000"/><use xlink:href="#l08_yhadSQH5-4_rmPeZ_pad-15" x="166500" y="-78000"/><use xlink:href="#l08_yhadSQH5-4_rmPeZ_pad-15" x="164500" y="-78000"/><use xlink:href="#l08_yhadSQH5-4_rmPeZ_pad-15" x="166500" y="-80000"/><use xlink:href="#l08_yhadSQH5-4_rmPeZ_pad-15" x="164500" y="-80000"/><use xlink:href="#l08_yhadSQH5-4_rmPeZ_pad-15" x="166500" y="-82000"/><use xlink:href="#l08_yhadSQH5-4_rmPeZ_pad-15" x="164500" y="-82000"/><use xlink:href="#l08_yhadSQH5-4_rmPeZ_pad-15" x="166500" y="-84000"/><use xlink:href="#l08_yhadSQH5-4_rmPeZ_pad-15" x="164500" y="-84000"/><use xlink:href="#l08_yhadSQH5-4_rmPeZ_pad-15" x="166500" y="-86000"/><use xlink:href="#l08_yhadSQH5-4_rmPeZ_pad-15" x="164500" y="-86000"/><use xlink:href="#l08_yhadSQH5-4_rmPeZ_pad-15" x="166500" y="-88000"/><use xlink:href="#l08_yhadSQH5-4_rmPeZ_pad-15" x="164500" y="-88000"/><use xlink:href="#l08_yhadSQH5-4_rmPeZ_pad-15" x="166500" y="-90000"/><use xlink:href="#l08_yhadSQH5-4_rmPeZ_pad-15" x="164500" y="-90000"/><use xlink:href="#l08_yhadSQH5-4_rmPeZ_pad-15" x="166500" y="-92000"/><use xlink:href="#l08_yhadSQH5-4_rmPeZ_pad-15" x="164500" y="-92000"/><use xlink:href="#l08_yhadSQH5-4_rmPeZ_pad-15" x="166500" y="-94000"/><use xlink:href="#l08_yhadSQH5-4_rmPeZ_pad-15" x="164500" y="-94000"/><use xlink:href="#l08_yhadSQH5-4_rmPeZ_pad-15" x="166500" y="-96000"/><use xlink:href="#l08_yhadSQH5-4_rmPeZ_pad-15" x="164500" y="-96000"/><use xlink:href="#l08_yhadSQH5-4_rmPeZ_pad-15" x="166500" y="-98000"/><use xlink:href="#l08_yhadSQH5-4_rmPeZ_pad-15" x="164500" y="-98000"/><use xlink:href="#l08_yhadSQH5-4_rmPeZ_pad-15" x="166500" y="-100000"/><use xlink:href="#l08_yhadSQH5-4_rmPeZ_pad-15" x="164500" y="-100000"/><path d="M 196954.9 -112925.1 198120 -111760 M 186401.8 -112925.1 196954.9 -112925.1 M 167476.7 -94000 186401.8 -112925.1 M 166500 -94000 167476.7 -94000 M 166500 -76000 166500 -74000 166500 -72000 166500 -70000 166500 -68000 166500 -66000 M 195580 -111760 195580 -109220 195580 -106680 195580 -104140 195580 -101600 195580 -99060 195580 -96520 195580 -93980 195580 -91440 M 195580 -88900 195580 -86360 M 198120 -76200 198120 -73660 M 195580 -73660 195580 -71120 195580 -68580 195580 -66040 195580 -63500 195580 -60960 195580 -58420 195580 -55880 195580 -53340 195580 -50800 M 166500 -84000 166500 -82000 M 166500 -66000 166500 -64000 M 164500 -64000 165476.7 -64000 M 166500 -64000 165476.7 -64000 M 166500 -84000 166500 -84976.7 M 166500 -76000 166500 -76976.7 M 166500 -82000 166500 -80000 M 166095.2 -76976.7 166500 -76976.7 M 165500 -77571.9 166095.2 -76976.7 M 165500 -78389.6 165500 -77571.9 M 166133.7 -79023.3 165500 -78389.6 M 166500 -79023.3 166133.7 -79023.3 M 166500 -80000 166500 -79023.3 M 196929.4 -77390.6 198120 -76200 M 196929.4 -85289.7 196929.4 -77390.6 M 197049.7 -85289.7 196929.4 -85289.7 M 198120 -86360 197049.7 -85289.7 M 196650.3 -85289.7 195580 -86360 M 196929.4 -85289.7 196650.3 -85289.7 M 166500 -92000 166500 -91023.3 M 166500 -88000 165523.3 -88000 M 166095.2 -84976.7 166500 -84976.7 M 165523.3 -85548.6 166095.2 -84976.7 M 165523.3 -88000 165523.3 -85548.6 M 166500 -91023.3 166133.7 -91023.3 M 165523.3 -90412.9 165523.3 -88000 M 166133.7 -91023.3 165523.3 -90412.9 M 166500 -98000 166500 -96000 M 166133.7 -92816.3 166133.7 -91023.3 M 165523.3 -93426.7 166133.7 -92816.3 M 165523.3 -94413 165523.3 -93426.7 M 166133.6 -95023.3 165523.3 -94413 M 166500 -95023.3 166133.6 -95023.3 M 166500 -96000 166500 -95023.3" fill="none" stroke-width="200"/></g><g id="KB11PyIVVIc1bbMxdEKR_top_drill1"><path d="M 153500 -37500 205000 -37500 205000 -125000 153500 -125000 153500 -37500 M 158500 -40000 A 1500 1500 0 0 0 155500 -40000 1500 1500 0 0 0 158500 -40000 M 203000 -122500 A 1500 1500 0 0 0 200000 -122500 1500 1500 0 0 0 203000 -122500 M 203000 -40000 A 1500 1500 0 0 0 200000 -40000 1500 1500 0 0 0 203000 -40000 M 158500 -122500 A 1500 1500 0 0 0 155500 -122500 1500 1500 0 0 0 158500 -122500" fill="none" stroke-width="50"/><path d="M 156082.77 -128139.84 156082.77 -126139.84 156558.96 -126139.84 156844.67 -126235.08 157035.15 -126425.55 157130.39 -126616.03 157225.62 -126996.98 157225.62 -127282.69 157130.39 -127663.65 157035.15 -127854.12 156844.67 -128044.6 156558.96 -128139.84 156082.77 -128139.84 M 158082.77 -128139.84 158082.77 -126806.5 M 158082.77 -127187.46 158178.01 -126996.98 158273.24 -126901.74 158463.72 -126806.5 158654.2 -126806.5 M 159320.86 -128139.84 159320.86 -126806.5 M 159320.86 -126139.84 159225.62 -126235.08 159320.86 -126330.31 159416.1 -126235.08 159320.86 -126139.84 159320.86 -126330.31 M 160558.96 -128139.84 160368.48 -128044.6 160273.24 -127854.12 160273.24 -126139.84 M 161606.58 -128139.84 161416.1 -128044.6 161320.86 -127854.12 161320.86 -126139.84 M 163892.29 -128139.84 163892.29 -126139.84 164558.96 -127568.41 165225.62 -126139.84 165225.62 -128139.84 M 167035.15 -128139.84 167035.15 -127092.22 166939.91 -126901.74 166749.43 -126806.5 166368.48 -126806.5 166178.01 -126901.74 M 167035.15 -128044.6 166844.67 -128139.84 166368.48 -128139.84 166178.01 -128044.6 166082.77 -127854.12 166082.77 -127663.65 166178.01 -127473.17 166368.48 -127377.93 166844.67 -127377.93 167035.15 -127282.69 M 167987.53 -126806.5 167987.53 -128806.5 M 167987.53 -126901.74 168178.01 -126806.5 168558.96 -126806.5 168749.44 -126901.74 168844.67 -126996.98 168939.91 -127187.46 168939.91 -127758.88 168844.67 -127949.36 168749.44 -128044.6 168558.96 -128139.84 168178.01 -128139.84 167987.53 -128044.6 M 169797.05 -127949.36 169892.29 -128044.6 169797.05 -128139.84 169701.82 -128044.6 169797.05 -127949.36 169797.05 -128139.84 M 169797.05 -126901.74 169892.29 -126996.98 169797.05 -127092.22 169701.82 -126996.98 169797.05 -126901.74 169797.05 -127092.22" fill="none" stroke-width="200"/></g><g id="KB11PyIVVIc1bbMxdEKR_top_drill2" transform="scale(25.4,25.4)"><use xlink:href="#blREFLeGcW0ShVphH_ZX_pad-1" x="6476.4" y="-2440.9"/><use xlink:href="#blREFLeGcW0ShVphH_ZX_pad-1" x="6476.4" y="-2519.7"/><use xlink:href="#blREFLeGcW0ShVphH_ZX_pad-1" x="6476.4" y="-2598.4"/><use xlink:href="#blREFLeGcW0ShVphH_ZX_pad-1" x="6476.4" y="-2677.2"/><use xlink:href="#blREFLeGcW0ShVphH_ZX_pad-1" x="6476.4" y="-2755.9"/><use xlink:href="#blREFLeGcW0ShVphH_ZX_pad-1" x="6476.4" y="-2834.6"/><use xlink:href="#blREFLeGcW0ShVphH_ZX_pad-1" x="6476.4" y="-2913.4"/><use xlink:href="#blREFLeGcW0ShVphH_ZX_pad-1" x="6476.4" y="-2992.1"/><use xlink:href="#blREFLeGcW0ShVphH_ZX_pad-1" x="6476.4" y="-3070.9"/><use xlink:href="#blREFLeGcW0ShVphH_ZX_pad-1" x="6476.4" y="-3149.6"/><use xlink:href="#blREFLeGcW0ShVphH_ZX_pad-1" x="6476.4" y="-3228.3"/><use xlink:href="#blREFLeGcW0ShVphH_ZX_pad-1" x="6476.4" y="-3307.1"/><use xlink:href="#blREFLeGcW0ShVphH_ZX_pad-1" x="6476.4" y="-3385.8"/><use xlink:href="#blREFLeGcW0ShVphH_ZX_pad-1" x="6476.4" y="-3464.6"/><use xlink:href="#blREFLeGcW0ShVphH_ZX_pad-1" x="6476.4" y="-3543.3"/><use xlink:href="#blREFLeGcW0ShVphH_ZX_pad-1" x="6476.4" y="-3622"/><use xlink:href="#blREFLeGcW0ShVphH_ZX_pad-1" x="6476.4" y="-3700.8"/><use xlink:href="#blREFLeGcW0ShVphH_ZX_pad-1" x="6476.4" y="-3779.5"/><use xlink:href="#blREFLeGcW0ShVphH_ZX_pad-1" x="6476.4" y="-3858.3"/><use xlink:href="#blREFLeGcW0ShVphH_ZX_pad-1" x="6476.4" y="-3937"/><use xlink:href="#blREFLeGcW0ShVphH_ZX_pad-1" x="6555.1" y="-2440.9"/><use xlink:href="#blREFLeGcW0ShVphH_ZX_pad-1" x="6555.1" y="-2519.7"/><use xlink:href="#blREFLeGcW0ShVphH_ZX_pad-1" x="6555.1" y="-2598.4"/><use xlink:href="#blREFLeGcW0ShVphH_ZX_pad-1" x="6555.1" y="-2677.2"/><use xlink:href="#blREFLeGcW0ShVphH_ZX_pad-1" x="6555.1" y="-2755.9"/><use xlink:href="#blREFLeGcW0ShVphH_ZX_pad-1" x="6555.1" y="-2834.6"/><use xlink:href="#blREFLeGcW0ShVphH_ZX_pad-1" x="6555.1" y="-2913.4"/><use xlink:href="#blREFLeGcW0ShVphH_ZX_pad-1" x="6555.1" y="-2992.1"/><use xlink:href="#blREFLeGcW0ShVphH_ZX_pad-1" x="6555.1" y="-3070.9"/><use xlink:href="#blREFLeGcW0ShVphH_ZX_pad-1" x="6555.1" y="-3149.6"/><use xlink:href="#blREFLeGcW0ShVphH_ZX_pad-1" x="6555.1" y="-3228.3"/><use xlink:href="#blREFLeGcW0ShVphH_ZX_pad-1" x="6555.1" y="-3307.1"/><use xlink:href="#blREFLeGcW0ShVphH_ZX_pad-1" x="6555.1" y="-3385.8"/><use xlink:href="#blREFLeGcW0ShVphH_ZX_pad-1" x="6555.1" y="-3464.6"/><use xlink:href="#blREFLeGcW0ShVphH_ZX_pad-1" x="6555.1" y="-3543.3"/><use xlink:href="#blREFLeGcW0ShVphH_ZX_pad-1" x="6555.1" y="-3622"/><use xlink:href="#blREFLeGcW0ShVphH_ZX_pad-1" x="6555.1" y="-3700.8"/><use xlink:href="#blREFLeGcW0ShVphH_ZX_pad-1" x="6555.1" y="-3779.5"/><use xlink:href="#blREFLeGcW0ShVphH_ZX_pad-1" x="6555.1" y="-3858.3"/><use xlink:href="#blREFLeGcW0ShVphH_ZX_pad-1" x="6555.1" y="-3937"/><use xlink:href="#blREFLeGcW0ShVphH_ZX_pad-2" x="6948.8" y="-1929.1"/><use xlink:href="#blREFLeGcW0ShVphH_ZX_pad-2" x="7048.8" y="-1929.1"/><use xlink:href="#blREFLeGcW0ShVphH_ZX_pad-2" x="7148.8" y="-1929.1"/><use xlink:href="#blREFLeGcW0ShVphH_ZX_pad-2" x="7248.8" y="-1929.1"/><use xlink:href="#blREFLeGcW0ShVphH_ZX_pad-2" x="7700" y="-2000"/><use xlink:href="#blREFLeGcW0ShVphH_ZX_pad-2" x="7700" y="-2100"/><use xlink:href="#blREFLeGcW0ShVphH_ZX_pad-2" x="7700" y="-2200"/><use xlink:href="#blREFLeGcW0ShVphH_ZX_pad-2" x="7700" y="-2300"/><use xlink:href="#blREFLeGcW0ShVphH_ZX_pad-2" x="7700" y="-2400"/><use xlink:href="#blREFLeGcW0ShVphH_ZX_pad-2" x="7700" y="-2500"/><use xlink:href="#blREFLeGcW0ShVphH_ZX_pad-2" x="7700" y="-2600"/><use xlink:href="#blREFLeGcW0ShVphH_ZX_pad-2" x="7700" y="-2700"/><use xlink:href="#blREFLeGcW0ShVphH_ZX_pad-2" x="7700" y="-2800"/><use xlink:href="#blREFLeGcW0ShVphH_ZX_pad-2" x="7700" y="-2900"/><use xlink:href="#blREFLeGcW0ShVphH_ZX_pad-2" x="7700" y="-3000"/><use xlink:href="#blREFLeGcW0ShVphH_ZX_pad-2" x="7700" y="-3100"/><use xlink:href="#blREFLeGcW0ShVphH_ZX_pad-2" x="7700" y="-3200"/><use xlink:href="#blREFLeGcW0ShVphH_ZX_pad-2" x="7700" y="-3300"/><use xlink:href="#blREFLeGcW0ShVphH_ZX_pad-2" x="7700" y="-3400"/><use xlink:href="#blREFLeGcW0ShVphH_ZX_pad-2" x="7700" y="-3500"/><use xlink:href="#blREFLeGcW0ShVphH_ZX_pad-2" x="7700" y="-3600"/><use xlink:href="#blREFLeGcW0ShVphH_ZX_pad-2" x="7700" y="-3700"/><use xlink:href="#blREFLeGcW0ShVphH_ZX_pad-2" x="7700" y="-3800"/><use xlink:href="#blREFLeGcW0ShVphH_ZX_pad-2" x="7700" y="-3900"/><use xlink:href="#blREFLeGcW0ShVphH_ZX_pad-2" x="7700" y="-4000"/><use xlink:href="#blREFLeGcW0ShVphH_ZX_pad-2" x="7700" y="-4100"/><use xlink:href="#blREFLeGcW0ShVphH_ZX_pad-2" x="7700" y="-4200"/><use xlink:href="#blREFLeGcW0ShVphH_ZX_pad-2" x="7700" y="-4300"/><use xlink:href="#blREFLeGcW0ShVphH_ZX_pad-2" x="7700" y="-4400"/><use xlink:href="#blREFLeGcW0ShVphH_ZX_pad-2" x="7800" y="-2000"/><use xlink:href="#blREFLeGcW0ShVphH_ZX_pad-2" x="7800" y="-2100"/><use xlink:href="#blREFLeGcW0ShVphH_ZX_pad-2" x="7800" y="-2200"/><use xlink:href="#blREFLeGcW0ShVphH_ZX_pad-2" x="7800" y="-2300"/><use xlink:href="#blREFLeGcW0ShVphH_ZX_pad-2" x="7800" y="-2400"/><use xlink:href="#blREFLeGcW0ShVphH_ZX_pad-2" x="7800" y="-2500"/><use xlink:href="#blREFLeGcW0ShVphH_ZX_pad-2" x="7800" y="-2600"/><use xlink:href="#blREFLeGcW0ShVphH_ZX_pad-2" x="7800" y="-2700"/><use xlink:href="#blREFLeGcW0ShVphH_ZX_pad-2" x="7800" y="-2800"/><use xlink:href="#blREFLeGcW0ShVphH_ZX_pad-2" x="7800" y="-2900"/><use xlink:href="#blREFLeGcW0ShVphH_ZX_pad-2" x="7800" y="-3000"/><use xlink:href="#blREFLeGcW0ShVphH_ZX_pad-2" x="7800" y="-3100"/><use xlink:href="#blREFLeGcW0ShVphH_ZX_pad-2" x="7800" y="-3200"/><use xlink:href="#blREFLeGcW0ShVphH_ZX_pad-2" x="7800" y="-3300"/><use xlink:href="#blREFLeGcW0ShVphH_ZX_pad-2" x="7800" y="-3400"/><use xlink:href="#blREFLeGcW0ShVphH_ZX_pad-2" x="7800" y="-3500"/><use xlink:href="#blREFLeGcW0ShVphH_ZX_pad-2" x="7800" y="-3600"/><use xlink:href="#blREFLeGcW0ShVphH_ZX_pad-2" x="7800" y="-3700"/><use xlink:href="#blREFLeGcW0ShVphH_ZX_pad-2" x="7800" y="-3800"/><use xlink:href="#blREFLeGcW0ShVphH_ZX_pad-2" x="7800" y="-3900"/><use xlink:href="#blREFLeGcW0ShVphH_ZX_pad-2" x="7800" y="-4000"/><use xlink:href="#blREFLeGcW0ShVphH_ZX_pad-2" x="7800" y="-4100"/><use xlink:href="#blREFLeGcW0ShVphH_ZX_pad-2" x="7800" y="-4200"/><use xlink:href="#blREFLeGcW0ShVphH_ZX_pad-2" x="7800" y="-4300"/><use xlink:href="#blREFLeGcW0ShVphH_ZX_pad-2" x="7800" y="-4400"/></g><clipPath id="KB11PyIVVIc1bbMxdEKR_top_outline"><path d="M 153500 -37500 205000 -37500 205000 -125000 153500 -125000 153500 -37500 M 158500 -40000 A 1500 1500 0 0 0 155500 -40000 1500 1500 0 0 0 158500 -40000 M 203000 -122500 A 1500 1500 0 0 0 200000 -122500 1500 1500 0 0 0 203000 -122500 M 203000 -40000 A 1500 1500 0 0 0 200000 -40000 1500 1500 0 0 0 203000 -40000 M 158500 -122500 A 1500 1500 0 0 0 155500 -122500 1500 1500 0 0 0 158500 -122500" fill="none" stroke-width="50"/></clipPath><mask id="KB11PyIVVIc1bbMxdEKR_top_mech-mask"><g fill="#000" stroke="#000"><rect x="153500" y="-125000" width="51500" height="87500" fill="#fff"/><use xlink:href="#KB11PyIVVIc1bbMxdEKR_top_drill1"/><use xlink:href="#KB11PyIVVIc1bbMxdEKR_top_drill2"/></g></mask><mask id="KB11PyIVVIc1bbMxdEKR_top_cf-mask"><g fill="#fff" stroke="#fff"><use xlink:href="#KB11PyIVVIc1bbMxdEKR_top_soldermask"/></g></mask><mask id="KB11PyIVVIc1bbMxdEKR_top_sm-mask"><g fill="#000" stroke="#000"><rect x="153500" y="-125000" width="51500" height="87500" fill="#fff"/><use xlink:href="#KB11PyIVVIc1bbMxdEKR_top_soldermask"/></g></mask></defs><g transform="translate(0,-162500) scale(1,-1)"><g mask="url(#KB11PyIVVIc1bbMxdEKR_top_mech-mask)" clip-path="url(#KB11PyIVVIc1bbMxdEKR_top_outline)"><rect x="153500" y="-125000" width="51500" height="87500" fill="currentColor" class="KB11PyIVVIc1bbMxdEKR_fr4"/><use xlink:href="#KB11PyIVVIc1bbMxdEKR_top_copper" fill="currentColor" stroke="currentColor" class="KB11PyIVVIc1bbMxdEKR_cu"/><use xlink:href="#KB11PyIVVIc1bbMxdEKR_top_copper" fill="currentColor" stroke="currentColor" class="KB11PyIVVIc1bbMxdEKR_cf" mask="url(#KB11PyIVVIc1bbMxdEKR_top_cf-mask)"/><g mask="url(#KB11PyIVVIc1bbMxdEKR_top_sm-mask)"><rect x="153500" y="-125000" width="51500" height="87500" fill="currentColor" class="KB11PyIVVIc1bbMxdEKR_sm"/><use xlink:href="#KB11PyIVVIc1bbMxdEKR_top_silkscreen" fill="currentColor" stroke="currentColor" class="KB11PyIVVIc1bbMxdEKR_ss"/></g></g></g></svg>