%TF.GenerationSoftware,KiCad,Pcbnew,8.0.1*%
%TF.CreationDate,2024-04-03T09:44:09-05:00*%
%TF.ProjectId,SCSI-Adapter,53435349-2d41-4646-9170-7465722e6b69,rev?*%
%TF.SameCoordinates,Original*%
%TF.FileFunction,Copper,L2,Bot*%
%TF.FilePolarity,Positive*%
%FSLAX46Y46*%
G04 Gerber Fmt 4.6, Leading zero omitted, Abs format (unit mm)*
G04 Created by KiCad (PCBNEW 8.0.1) date 2024-04-03 09:44:09*
%MOMM*%
%LPD*%
G01*
G04 APERTURE LIST*
G04 Aperture macros list*
%AMRoundRect*
0 Rectangle with rounded corners*
0 $1 Rounding radius*
0 $2 $3 $4 $5 $6 $7 $8 $9 X,Y pos of 4 corners*
0 Add a 4 corners polygon primitive as box body*
4,1,4,$2,$3,$4,$5,$6,$7,$8,$9,$2,$3,0*
0 Add four circle primitives for the rounded corners*
1,1,$1+$1,$2,$3*
1,1,$1+$1,$4,$5*
1,1,$1+$1,$6,$7*
1,1,$1+$1,$8,$9*
0 Add four rect primitives between the rounded corners*
20,1,$1+$1,$2,$3,$4,$5,0*
20,1,$1+$1,$4,$5,$6,$7,0*
20,1,$1+$1,$6,$7,$8,$9,0*
20,1,$1+$1,$8,$9,$2,$3,0*%
G04 Aperture macros list end*
%TA.AperFunction,ComponentPad*%
%ADD10RoundRect,0.250000X-0.600000X-0.600000X0.600000X-0.600000X0.600000X0.600000X-0.600000X0.600000X0*%
%TD*%
%TA.AperFunction,ComponentPad*%
%ADD11C,1.700000*%
%TD*%
%TA.AperFunction,ComponentPad*%
%ADD12R,1.700000X1.700000*%
%TD*%
%TA.AperFunction,ComponentPad*%
%ADD13O,1.700000X1.700000*%
%TD*%
%TA.AperFunction,ComponentPad*%
%ADD14R,1.350000X1.350000*%
%TD*%
%TA.AperFunction,ComponentPad*%
%ADD15O,1.350000X1.350000*%
%TD*%
%TA.AperFunction,Conductor*%
%ADD16C,0.200000*%
%TD*%
G04 APERTURE END LIST*
D10*
%TO.P,J2,1,Pin_1*%
%TO.N,GND*%
X195580000Y-50800000D03*
D11*
%TO.P,J2,2,Pin_2*%
%TO.N,/D0*%
X198120000Y-50800000D03*
%TO.P,J2,3,Pin_3*%
%TO.N,GND*%
X195580000Y-53340000D03*
%TO.P,J2,4,Pin_4*%
%TO.N,/D1*%
X198120000Y-53340000D03*
%TO.P,J2,5,Pin_5*%
%TO.N,GND*%
X195580000Y-55880000D03*
%TO.P,J2,6,Pin_6*%
%TO.N,/D2*%
X198120000Y-55880000D03*
%TO.P,J2,7,Pin_7*%
%TO.N,GND*%
X195580000Y-58420000D03*
%TO.P,J2,8,Pin_8*%
%TO.N,/D3*%
X198120000Y-58420000D03*
%TO.P,J2,9,Pin_9*%
%TO.N,GND*%
X195580000Y-60960000D03*
%TO.P,J2,10,Pin_10*%
%TO.N,/D4*%
X198120000Y-60960000D03*
%TO.P,J2,11,Pin_11*%
%TO.N,GND*%
X195580000Y-63500000D03*
%TO.P,J2,12,Pin_12*%
%TO.N,/D5*%
X198120000Y-63500000D03*
%TO.P,J2,13,Pin_13*%
%TO.N,GND*%
X195580000Y-66040000D03*
%TO.P,J2,14,Pin_14*%
%TO.N,/D6*%
X198120000Y-66040000D03*
%TO.P,J2,15,Pin_15*%
%TO.N,GND*%
X195580000Y-68580000D03*
%TO.P,J2,16,Pin_16*%
%TO.N,/D7*%
X198120000Y-68580000D03*
%TO.P,J2,17,Pin_17*%
%TO.N,GND*%
X195580000Y-71120000D03*
%TO.P,J2,18,Pin_18*%
%TO.N,/PARITY*%
X198120000Y-71120000D03*
%TO.P,J2,19,Pin_19*%
%TO.N,GND*%
X195580000Y-73660000D03*
%TO.P,J2,20,Pin_20*%
X198120000Y-73660000D03*
%TO.P,J2,21,Pin_21*%
%TO.N,unconnected-(J2-Pin_21-Pad21)*%
X195580000Y-76200000D03*
%TO.P,J2,22,Pin_22*%
%TO.N,GND*%
X198120000Y-76200000D03*
%TO.P,J2,23,Pin_23*%
%TO.N,unconnected-(J2-Pin_23-Pad23)*%
X195580000Y-78740000D03*
%TO.P,J2,24,Pin_24*%
%TO.N,unconnected-(J2-Pin_24-Pad24)*%
X198120000Y-78740000D03*
%TO.P,J2,25,Pin_25*%
%TO.N,unconnected-(J2-Pin_25-Pad25)*%
X195580000Y-81280000D03*
%TO.P,J2,26,Pin_26*%
%TO.N,/TERM*%
X198120000Y-81280000D03*
%TO.P,J2,27,Pin_27*%
%TO.N,unconnected-(J2-Pin_27-Pad27)*%
X195580000Y-83820000D03*
%TO.P,J2,28,Pin_28*%
%TO.N,unconnected-(J2-Pin_28-Pad28)*%
X198120000Y-83820000D03*
%TO.P,J2,29,Pin_29*%
%TO.N,GND*%
X195580000Y-86360000D03*
%TO.P,J2,30,Pin_30*%
X198120000Y-86360000D03*
%TO.P,J2,31,Pin_31*%
X195580000Y-88900000D03*
%TO.P,J2,32,Pin_32*%
%TO.N,/ATN*%
X198120000Y-88900000D03*
%TO.P,J2,33,Pin_33*%
%TO.N,GND*%
X195580000Y-91440000D03*
%TO.P,J2,34,Pin_34*%
X198120000Y-91440000D03*
%TO.P,J2,35,Pin_35*%
X195580000Y-93980000D03*
%TO.P,J2,36,Pin_36*%
%TO.N,/BSY*%
X198120000Y-93980000D03*
%TO.P,J2,37,Pin_37*%
%TO.N,GND*%
X195580000Y-96520000D03*
%TO.P,J2,38,Pin_38*%
%TO.N,/ACK*%
X198120000Y-96520000D03*
%TO.P,J2,39,Pin_39*%
%TO.N,GND*%
X195580000Y-99060000D03*
%TO.P,J2,40,Pin_40*%
%TO.N,/RST*%
X198120000Y-99060000D03*
%TO.P,J2,41,Pin_41*%
%TO.N,GND*%
X195580000Y-101600000D03*
%TO.P,J2,42,Pin_42*%
%TO.N,/MSG*%
X198120000Y-101600000D03*
%TO.P,J2,43,Pin_43*%
%TO.N,GND*%
X195580000Y-104140000D03*
%TO.P,J2,44,Pin_44*%
%TO.N,/SEL*%
X198120000Y-104140000D03*
%TO.P,J2,45,Pin_45*%
%TO.N,GND*%
X195580000Y-106680000D03*
%TO.P,J2,46,Pin_46*%
%TO.N,/CD*%
X198120000Y-106680000D03*
%TO.P,J2,47,Pin_47*%
%TO.N,GND*%
X195580000Y-109220000D03*
%TO.P,J2,48,Pin_48*%
%TO.N,/REQ*%
X198120000Y-109220000D03*
%TO.P,J2,49,Pin_49*%
%TO.N,GND*%
X195580000Y-111760000D03*
%TO.P,J2,50,Pin_50*%
%TO.N,/IO*%
X198120000Y-111760000D03*
%TD*%
D12*
%TO.P,J3,1,Pin_1*%
%TO.N,unconnected-(J3-Pin_1-Pad1)*%
X184120000Y-49000000D03*
D13*
%TO.P,J3,2,Pin_2*%
%TO.N,unconnected-(J3-Pin_2-Pad2)*%
X181580000Y-49000000D03*
%TO.P,J3,3,Pin_3*%
%TO.N,GND*%
X179040000Y-49000000D03*
%TO.P,J3,4,Pin_4*%
%TO.N,/VCC*%
X176500000Y-49000000D03*
%TD*%
D14*
%TO.P,J1,1,Pin_1*%
%TO.N,unconnected-(J1-Pin_1-Pad1)*%
X166500000Y-62000000D03*
D15*
%TO.P,J1,2,Pin_2*%
%TO.N,/VCC*%
X164500000Y-62000000D03*
%TO.P,J1,3,Pin_3*%
%TO.N,GND*%
X166500000Y-64000000D03*
%TO.P,J1,4,Pin_4*%
X164500000Y-64000000D03*
%TO.P,J1,5,Pin_5*%
X166500000Y-66000000D03*
%TO.P,J1,6,Pin_6*%
%TO.N,/D0*%
X164500000Y-66000000D03*
%TO.P,J1,7,Pin_7*%
%TO.N,GND*%
X166500000Y-68000000D03*
%TO.P,J1,8,Pin_8*%
%TO.N,/D1*%
X164500000Y-68000000D03*
%TO.P,J1,9,Pin_9*%
%TO.N,GND*%
X166500000Y-70000000D03*
%TO.P,J1,10,Pin_10*%
%TO.N,/D2*%
X164500000Y-70000000D03*
%TO.P,J1,11,Pin_11*%
%TO.N,GND*%
X166500000Y-72000000D03*
%TO.P,J1,12,Pin_12*%
%TO.N,/D3*%
X164500000Y-72000000D03*
%TO.P,J1,13,Pin_13*%
%TO.N,GND*%
X166500000Y-74000000D03*
%TO.P,J1,14,Pin_14*%
%TO.N,/D4*%
X164500000Y-74000000D03*
%TO.P,J1,15,Pin_15*%
%TO.N,GND*%
X166500000Y-76000000D03*
%TO.P,J1,16,Pin_16*%
%TO.N,/D5*%
X164500000Y-76000000D03*
%TO.P,J1,17,Pin_17*%
%TO.N,unconnected-(J1-Pin_17-Pad17)*%
X166500000Y-78000000D03*
%TO.P,J1,18,Pin_18*%
%TO.N,/D6*%
X164500000Y-78000000D03*
%TO.P,J1,19,Pin_19*%
%TO.N,GND*%
X166500000Y-80000000D03*
%TO.P,J1,20,Pin_20*%
%TO.N,/D7*%
X164500000Y-80000000D03*
%TO.P,J1,21,Pin_21*%
%TO.N,GND*%
X166500000Y-82000000D03*
%TO.P,J1,22,Pin_22*%
%TO.N,/PARITY*%
X164500000Y-82000000D03*
%TO.P,J1,23,Pin_23*%
%TO.N,GND*%
X166500000Y-84000000D03*
%TO.P,J1,24,Pin_24*%
%TO.N,/TERM*%
X164500000Y-84000000D03*
%TO.P,J1,25,Pin_25*%
%TO.N,/ATN*%
X166500000Y-86000000D03*
%TO.P,J1,26,Pin_26*%
%TO.N,/BSY*%
X164500000Y-86000000D03*
%TO.P,J1,27,Pin_27*%
%TO.N,GND*%
X166500000Y-88000000D03*
%TO.P,J1,28,Pin_28*%
%TO.N,/ACK*%
X164500000Y-88000000D03*
%TO.P,J1,29,Pin_29*%
%TO.N,/RST*%
X166500000Y-90000000D03*
%TO.P,J1,30,Pin_30*%
%TO.N,/MSG*%
X164500000Y-90000000D03*
%TO.P,J1,31,Pin_31*%
%TO.N,GND*%
X166500000Y-92000000D03*
%TO.P,J1,32,Pin_32*%
%TO.N,/SEL*%
X164500000Y-92000000D03*
%TO.P,J1,33,Pin_33*%
%TO.N,/IO*%
X166500000Y-94000000D03*
%TO.P,J1,34,Pin_34*%
%TO.N,/CD*%
X164500000Y-94000000D03*
%TO.P,J1,35,Pin_35*%
%TO.N,GND*%
X166500000Y-96000000D03*
%TO.P,J1,36,Pin_36*%
%TO.N,/REQ*%
X164500000Y-96000000D03*
%TO.P,J1,37,Pin_37*%
%TO.N,GND*%
X166500000Y-98000000D03*
%TO.P,J1,38,Pin_38*%
X164500000Y-98000000D03*
%TO.P,J1,39,Pin_39*%
%TO.N,unconnected-(J1-Pin_39-Pad39)*%
X166500000Y-100000000D03*
%TO.P,J1,40,Pin_40*%
%TO.N,unconnected-(J1-Pin_40-Pad40)*%
X164500000Y-100000000D03*
%TD*%
D16*
%TO.N,/D6*%
X164500000Y-78000000D02*
X165476700Y-78000000D01*
X196848500Y-67311500D02*
X198120000Y-66040000D01*
X177731600Y-67311500D02*
X196848500Y-67311500D01*
X168019800Y-77023300D02*
X177731600Y-67311500D01*
X166087000Y-77023300D02*
X168019800Y-77023300D01*
X165476700Y-77633600D02*
X166087000Y-77023300D01*
X165476700Y-78000000D02*
X165476700Y-77633600D01*
%TO.N,/ATN*%
X166500000Y-86000000D02*
X167476700Y-86000000D01*
X168046800Y-86000000D02*
X167476700Y-86000000D01*
X169675300Y-87628500D02*
X168046800Y-86000000D01*
X196848500Y-87628500D02*
X169675300Y-87628500D01*
X198120000Y-88900000D02*
X196848500Y-87628500D01*
%TO.N,/RST*%
X196850000Y-97790000D02*
X198120000Y-99060000D01*
X193897700Y-97790000D02*
X196850000Y-97790000D01*
X186107700Y-90000000D02*
X193897700Y-97790000D01*
X166500000Y-90000000D02*
X186107700Y-90000000D01*
%TO.N,/D3*%
X196850000Y-59690000D02*
X198120000Y-58420000D01*
X182686200Y-59690000D02*
X196850000Y-59690000D01*
X178890900Y-63485300D02*
X182686200Y-59690000D01*
X176914000Y-63485300D02*
X178890900Y-63485300D01*
X169376000Y-71023300D02*
X176914000Y-63485300D01*
X166087000Y-71023300D02*
X169376000Y-71023300D01*
X165476700Y-71633600D02*
X166087000Y-71023300D01*
X165476700Y-72000000D02*
X165476700Y-71633600D01*
X164500000Y-72000000D02*
X165476700Y-72000000D01*
%TO.N,/PARITY*%
X164500000Y-82000000D02*
X165476700Y-82000000D01*
X196848500Y-72391500D02*
X198120000Y-71120000D01*
X181868400Y-72391500D02*
X196848500Y-72391500D01*
X173236600Y-81023300D02*
X181868400Y-72391500D01*
X166087000Y-81023300D02*
X173236600Y-81023300D01*
X165476700Y-81633600D02*
X166087000Y-81023300D01*
X165476700Y-82000000D02*
X165476700Y-81633600D01*
%TO.N,/D4*%
X164500000Y-74000000D02*
X165476700Y-74000000D01*
X196848500Y-62231500D02*
X198120000Y-60960000D01*
X180783400Y-62231500D02*
X196848500Y-62231500D01*
X178986500Y-64028400D02*
X180783400Y-62231500D01*
X178418600Y-64028400D02*
X178986500Y-64028400D01*
X169423700Y-73023300D02*
X178418600Y-64028400D01*
X166087000Y-73023300D02*
X169423700Y-73023300D01*
X165476700Y-73633600D02*
X166087000Y-73023300D01*
X165476700Y-74000000D02*
X165476700Y-73633600D01*
%TO.N,/D7*%
X164500000Y-80000000D02*
X165476700Y-80000000D01*
X196848500Y-69851500D02*
X198120000Y-68580000D01*
X177191600Y-69851500D02*
X196848500Y-69851500D01*
X168019800Y-79023300D02*
X177191600Y-69851500D01*
X166087000Y-79023300D02*
X168019800Y-79023300D01*
X165476700Y-79633600D02*
X166087000Y-79023300D01*
X165476700Y-80000000D02*
X165476700Y-79633600D01*
%TO.N,/REQ*%
X196850000Y-107950000D02*
X198120000Y-109220000D01*
X178425300Y-107950000D02*
X196850000Y-107950000D01*
X167452000Y-96976700D02*
X178425300Y-107950000D01*
X166087000Y-96976700D02*
X167452000Y-96976700D01*
X165476700Y-96366400D02*
X166087000Y-96976700D01*
X165476700Y-96000000D02*
X165476700Y-96366400D01*
X164500000Y-96000000D02*
X165476700Y-96000000D01*
%TO.N,/D5*%
X164500000Y-76000000D02*
X165476700Y-76000000D01*
X196848500Y-64771500D02*
X198120000Y-63500000D01*
X178271600Y-64771500D02*
X196848500Y-64771500D01*
X168019800Y-75023300D02*
X178271600Y-64771500D01*
X166087000Y-75023300D02*
X168019800Y-75023300D01*
X165476700Y-75633600D02*
X166087000Y-75023300D01*
X165476700Y-76000000D02*
X165476700Y-75633600D01*
%TO.N,/CD*%
X164500000Y-94000000D02*
X165476700Y-94000000D01*
X196850000Y-105410000D02*
X198120000Y-106680000D01*
X193143200Y-105410000D02*
X196850000Y-105410000D01*
X182709900Y-94976700D02*
X193143200Y-105410000D01*
X166087000Y-94976700D02*
X182709900Y-94976700D01*
X165476700Y-94366400D02*
X166087000Y-94976700D01*
X165476700Y-94000000D02*
X165476700Y-94366400D01*
%TO.N,/SEL*%
X196850000Y-102870000D02*
X198120000Y-104140000D01*
X193722500Y-102870000D02*
X196850000Y-102870000D01*
X183829200Y-92976700D02*
X193722500Y-102870000D01*
X166087000Y-92976700D02*
X183829200Y-92976700D01*
X165476700Y-92366400D02*
X166087000Y-92976700D01*
X165476700Y-92000000D02*
X165476700Y-92366400D01*
X164500000Y-92000000D02*
X165476700Y-92000000D01*
%TO.N,/ACK*%
X164500000Y-88000000D02*
X165476700Y-88000000D01*
X196850000Y-95250000D02*
X198120000Y-96520000D01*
X192106400Y-95250000D02*
X196850000Y-95250000D01*
X185833100Y-88976700D02*
X192106400Y-95250000D01*
X166087000Y-88976700D02*
X185833100Y-88976700D01*
X165476700Y-88366400D02*
X166087000Y-88976700D01*
X165476700Y-88000000D02*
X165476700Y-88366400D01*
%TO.N,/D2*%
X164500000Y-70000000D02*
X165476700Y-70000000D01*
X165476700Y-69633600D02*
X165476700Y-70000000D01*
X166087000Y-69023300D02*
X165476700Y-69633600D01*
X170808000Y-69023300D02*
X166087000Y-69023300D01*
X182679800Y-57151500D02*
X170808000Y-69023300D01*
X196848500Y-57151500D02*
X182679800Y-57151500D01*
X198120000Y-55880000D02*
X196848500Y-57151500D01*
%TO.N,/BSY*%
X196850000Y-92710000D02*
X198120000Y-93980000D01*
X193543200Y-92710000D02*
X196850000Y-92710000D01*
X188863400Y-88030200D02*
X193543200Y-92710000D01*
X169438200Y-88030200D02*
X188863400Y-88030200D01*
X168422900Y-87014900D02*
X169438200Y-88030200D01*
X166125300Y-87014900D02*
X168422900Y-87014900D01*
X165476700Y-86366300D02*
X166125300Y-87014900D01*
X165476700Y-86000000D02*
X165476700Y-86366300D01*
X164500000Y-86000000D02*
X165476700Y-86000000D01*
%TO.N,/TERM*%
X196850000Y-82550000D02*
X198120000Y-81280000D01*
X167595000Y-82550000D02*
X196850000Y-82550000D01*
X167121700Y-83023300D02*
X167595000Y-82550000D01*
X166087000Y-83023300D02*
X167121700Y-83023300D01*
X165476700Y-83633600D02*
X166087000Y-83023300D01*
X165476700Y-84000000D02*
X165476700Y-83633600D01*
X164500000Y-84000000D02*
X165476700Y-84000000D01*
%TO.N,/D1*%
X164500000Y-68000000D02*
X165476700Y-68000000D01*
X196848500Y-54611500D02*
X198120000Y-53340000D01*
X182858300Y-54611500D02*
X196848500Y-54611500D01*
X170446500Y-67023300D02*
X182858300Y-54611500D01*
X166087000Y-67023300D02*
X170446500Y-67023300D01*
X165476700Y-67633600D02*
X166087000Y-67023300D01*
X165476700Y-68000000D02*
X165476700Y-67633600D01*
%TO.N,/MSG*%
X164500000Y-90000000D02*
X165476700Y-90000000D01*
X196850000Y-100330000D02*
X198120000Y-101600000D01*
X193668700Y-100330000D02*
X196850000Y-100330000D01*
X184315400Y-90976700D02*
X193668700Y-100330000D01*
X166087000Y-90976700D02*
X184315400Y-90976700D01*
X165476700Y-90366400D02*
X166087000Y-90976700D01*
X165476700Y-90000000D02*
X165476700Y-90366400D01*
%TO.N,/VCC*%
X165476700Y-61175000D02*
X176500000Y-50151700D01*
X165476700Y-62000000D02*
X165476700Y-61175000D01*
X176500000Y-49000000D02*
X176500000Y-50151700D01*
X164500000Y-62000000D02*
X165476700Y-62000000D01*
%TO.N,GND*%
X164500000Y-98000000D02*
X166500000Y-98000000D01*
X198120000Y-91440000D02*
X195580000Y-91440000D01*
X195580000Y-91440000D02*
X195580000Y-88900000D01*
X198120000Y-73660000D02*
X195580000Y-73660000D01*
X179040000Y-51295000D02*
X179040000Y-50800000D01*
X167311700Y-63023300D02*
X179040000Y-51295000D01*
X166500000Y-63023300D02*
X167311700Y-63023300D01*
X195580000Y-50800000D02*
X179040000Y-50800000D01*
X179040000Y-50800000D02*
X179040000Y-49000000D01*
X166500000Y-64000000D02*
X166500000Y-63023300D01*
%TO.N,/D0*%
X196761800Y-52158200D02*
X198120000Y-50800000D01*
X180973000Y-52158200D02*
X196761800Y-52158200D01*
X168107900Y-65023300D02*
X180973000Y-52158200D01*
X166087000Y-65023300D02*
X168107900Y-65023300D01*
X165476700Y-65633600D02*
X166087000Y-65023300D01*
X165476700Y-66000000D02*
X165476700Y-65633600D01*
X164500000Y-66000000D02*
X165476700Y-66000000D01*
%TD*%
M02*
