M48
; DRILL file {KiCad 8.0.1} date 2024-04-03T09:44:14-0500
; FORMAT={-:-/ absolute / inch / decimal}
; #@! TF.CreationDate,2024-04-03T09:44:14-05:00
; #@! TF.GenerationSoftware,Kicad,Pcbnew,8.0.1
; #@! TF.FileFunction,Plated,1,2,PTH
FMAT,2
INCH
; #@! TA.AperFunction,Plated,PTH,ComponentDrill
T1C0.0315
; #@! TA.AperFunction,Plated,PTH,ComponentDrill
T2C0.0394
%
G90
G05
T1
X6.4764Y-2.4409
X6.4764Y-2.5197
X6.4764Y-2.5984
X6.4764Y-2.6772
X6.4764Y-2.7559
X6.4764Y-2.8346
X6.4764Y-2.9134
X6.4764Y-2.9921
X6.4764Y-3.0709
X6.4764Y-3.1496
X6.4764Y-3.2283
X6.4764Y-3.3071
X6.4764Y-3.3858
X6.4764Y-3.4646
X6.4764Y-3.5433
X6.4764Y-3.622
X6.4764Y-3.7008
X6.4764Y-3.7795
X6.4764Y-3.8583
X6.4764Y-3.937
X6.5551Y-2.4409
X6.5551Y-2.5197
X6.5551Y-2.5984
X6.5551Y-2.6772
X6.5551Y-2.7559
X6.5551Y-2.8346
X6.5551Y-2.9134
X6.5551Y-2.9921
X6.5551Y-3.0709
X6.5551Y-3.1496
X6.5551Y-3.2283
X6.5551Y-3.3071
X6.5551Y-3.3858
X6.5551Y-3.4646
X6.5551Y-3.5433
X6.5551Y-3.622
X6.5551Y-3.7008
X6.5551Y-3.7795
X6.5551Y-3.8583
X6.5551Y-3.937
T2
X6.9488Y-1.9291
X7.0488Y-1.9291
X7.1488Y-1.9291
X7.2488Y-1.9291
X7.7Y-2.0
X7.7Y-2.1
X7.7Y-2.2
X7.7Y-2.3
X7.7Y-2.4
X7.7Y-2.5
X7.7Y-2.6
X7.7Y-2.7
X7.7Y-2.8
X7.7Y-2.9
X7.7Y-3.0
X7.7Y-3.1
X7.7Y-3.2
X7.7Y-3.3
X7.7Y-3.4
X7.7Y-3.5
X7.7Y-3.6
X7.7Y-3.7
X7.7Y-3.8
X7.7Y-3.9
X7.7Y-4.0
X7.7Y-4.1
X7.7Y-4.2
X7.7Y-4.3
X7.7Y-4.4
X7.8Y-2.0
X7.8Y-2.1
X7.8Y-2.2
X7.8Y-2.3
X7.8Y-2.4
X7.8Y-2.5
X7.8Y-2.6
X7.8Y-2.7
X7.8Y-2.8
X7.8Y-2.9
X7.8Y-3.0
X7.8Y-3.1
X7.8Y-3.2
X7.8Y-3.3
X7.8Y-3.4
X7.8Y-3.5
X7.8Y-3.6
X7.8Y-3.7
X7.8Y-3.8
X7.8Y-3.9
X7.8Y-4.0
X7.8Y-4.1
X7.8Y-4.2
X7.8Y-4.3
X7.8Y-4.4
M30
