%TF.GenerationSoftware,KiCad,Pcbnew,8.0.1*%
%TF.CreationDate,2024-04-03T11:18:05-05:00*%
%TF.ProjectId,SCSI-Adapter,53435349-2d41-4646-9170-7465722e6b69,rev?*%
%TF.SameCoordinates,Original*%
%TF.FileFunction,Drillmap*%
%TF.FilePolarity,Positive*%
%FSLAX45Y45*%
G04 Gerber Fmt 4.5, Leading zero omitted, Abs format (unit mm)*
G04 Created by KiCad (PCBNEW 8.0.1) date 2024-04-03 11:18:05*
%MOMM*%
%LPD*%
G01*
G04 APERTURE LIST*
%ADD10C,0.050000*%
%ADD11C,0.200000*%
%ADD12C,0.100000*%
G04 APERTURE END LIST*
D10*
X15350000Y-3750000D02*
X20500000Y-3750000D01*
X20500000Y-12500000D01*
X15350000Y-12500000D01*
X15350000Y-3750000D01*
X15850000Y-4000000D02*
G75*
G02*
X15550000Y-4000000I-150000J0D01*
G01*
X15550000Y-4000000D02*
G75*
G02*
X15850000Y-4000000I150000J0D01*
G01*
X20300000Y-12250000D02*
G75*
G02*
X20000000Y-12250000I-150000J0D01*
G01*
X20000000Y-12250000D02*
G75*
G02*
X20300000Y-12250000I150000J0D01*
G01*
X20300000Y-4000000D02*
G75*
G02*
X20000000Y-4000000I-150000J0D01*
G01*
X20000000Y-4000000D02*
G75*
G02*
X20300000Y-4000000I150000J0D01*
G01*
X15850000Y-12250000D02*
G75*
G02*
X15550000Y-12250000I-150000J0D01*
G01*
X15550000Y-12250000D02*
G75*
G02*
X15850000Y-12250000I150000J0D01*
G01*
D11*
D12*
X16410000Y-6160000D02*
X16490000Y-6240000D01*
X16490000Y-6160000D02*
X16410000Y-6240000D01*
X16410000Y-6360000D02*
X16490000Y-6440000D01*
X16490000Y-6360000D02*
X16410000Y-6440000D01*
X16410000Y-6560000D02*
X16490000Y-6640000D01*
X16490000Y-6560000D02*
X16410000Y-6640000D01*
X16410000Y-6760000D02*
X16490000Y-6840000D01*
X16490000Y-6760000D02*
X16410000Y-6840000D01*
X16410000Y-6960000D02*
X16490000Y-7040000D01*
X16490000Y-6960000D02*
X16410000Y-7040000D01*
X16410000Y-7160000D02*
X16490000Y-7240000D01*
X16490000Y-7160000D02*
X16410000Y-7240000D01*
X16410000Y-7360000D02*
X16490000Y-7440000D01*
X16490000Y-7360000D02*
X16410000Y-7440000D01*
X16410000Y-7560000D02*
X16490000Y-7640000D01*
X16490000Y-7560000D02*
X16410000Y-7640000D01*
X16410000Y-7760000D02*
X16490000Y-7840000D01*
X16490000Y-7760000D02*
X16410000Y-7840000D01*
X16410000Y-7960000D02*
X16490000Y-8040000D01*
X16490000Y-7960000D02*
X16410000Y-8040000D01*
X16410000Y-8160000D02*
X16490000Y-8240000D01*
X16490000Y-8160000D02*
X16410000Y-8240000D01*
X16410000Y-8360000D02*
X16490000Y-8440000D01*
X16490000Y-8360000D02*
X16410000Y-8440000D01*
X16410000Y-8560000D02*
X16490000Y-8640000D01*
X16490000Y-8560000D02*
X16410000Y-8640000D01*
X16410000Y-8760000D02*
X16490000Y-8840000D01*
X16490000Y-8760000D02*
X16410000Y-8840000D01*
X16410000Y-8960000D02*
X16490000Y-9040000D01*
X16490000Y-8960000D02*
X16410000Y-9040000D01*
X16410000Y-9160000D02*
X16490000Y-9240000D01*
X16490000Y-9160000D02*
X16410000Y-9240000D01*
X16410000Y-9360000D02*
X16490000Y-9440000D01*
X16490000Y-9360000D02*
X16410000Y-9440000D01*
X16410000Y-9560000D02*
X16490000Y-9640000D01*
X16490000Y-9560000D02*
X16410000Y-9640000D01*
X16410000Y-9760000D02*
X16490000Y-9840000D01*
X16490000Y-9760000D02*
X16410000Y-9840000D01*
X16410000Y-9960000D02*
X16490000Y-10040000D01*
X16490000Y-9960000D02*
X16410000Y-10040000D01*
X16610000Y-6160000D02*
X16690000Y-6240000D01*
X16690000Y-6160000D02*
X16610000Y-6240000D01*
X16610000Y-6360000D02*
X16690000Y-6440000D01*
X16690000Y-6360000D02*
X16610000Y-6440000D01*
X16610000Y-6560000D02*
X16690000Y-6640000D01*
X16690000Y-6560000D02*
X16610000Y-6640000D01*
X16610000Y-6760000D02*
X16690000Y-6840000D01*
X16690000Y-6760000D02*
X16610000Y-6840000D01*
X16610000Y-6960000D02*
X16690000Y-7040000D01*
X16690000Y-6960000D02*
X16610000Y-7040000D01*
X16610000Y-7160000D02*
X16690000Y-7240000D01*
X16690000Y-7160000D02*
X16610000Y-7240000D01*
X16610000Y-7360000D02*
X16690000Y-7440000D01*
X16690000Y-7360000D02*
X16610000Y-7440000D01*
X16610000Y-7560000D02*
X16690000Y-7640000D01*
X16690000Y-7560000D02*
X16610000Y-7640000D01*
X16610000Y-7760000D02*
X16690000Y-7840000D01*
X16690000Y-7760000D02*
X16610000Y-7840000D01*
X16610000Y-7960000D02*
X16690000Y-8040000D01*
X16690000Y-7960000D02*
X16610000Y-8040000D01*
X16610000Y-8160000D02*
X16690000Y-8240000D01*
X16690000Y-8160000D02*
X16610000Y-8240000D01*
X16610000Y-8360000D02*
X16690000Y-8440000D01*
X16690000Y-8360000D02*
X16610000Y-8440000D01*
X16610000Y-8560000D02*
X16690000Y-8640000D01*
X16690000Y-8560000D02*
X16610000Y-8640000D01*
X16610000Y-8760000D02*
X16690000Y-8840000D01*
X16690000Y-8760000D02*
X16610000Y-8840000D01*
X16610000Y-8960000D02*
X16690000Y-9040000D01*
X16690000Y-8960000D02*
X16610000Y-9040000D01*
X16610000Y-9160000D02*
X16690000Y-9240000D01*
X16690000Y-9160000D02*
X16610000Y-9240000D01*
X16610000Y-9360000D02*
X16690000Y-9440000D01*
X16690000Y-9360000D02*
X16610000Y-9440000D01*
X16610000Y-9560000D02*
X16690000Y-9640000D01*
X16690000Y-9560000D02*
X16610000Y-9640000D01*
X16610000Y-9760000D02*
X16690000Y-9840000D01*
X16690000Y-9760000D02*
X16610000Y-9840000D01*
X16610000Y-9960000D02*
X16690000Y-10040000D01*
X16690000Y-9960000D02*
X16610000Y-10040000D01*
X17700000Y-4900000D02*
G75*
G02*
X17600000Y-4900000I-50000J0D01*
G01*
X17600000Y-4900000D02*
G75*
G02*
X17700000Y-4900000I50000J0D01*
G01*
X17954000Y-4900000D02*
G75*
G02*
X17854000Y-4900000I-50000J0D01*
G01*
X17854000Y-4900000D02*
G75*
G02*
X17954000Y-4900000I50000J0D01*
G01*
X18208000Y-4900000D02*
G75*
G02*
X18108000Y-4900000I-50000J0D01*
G01*
X18108000Y-4900000D02*
G75*
G02*
X18208000Y-4900000I50000J0D01*
G01*
X18462000Y-4900000D02*
G75*
G02*
X18362000Y-4900000I-50000J0D01*
G01*
X18362000Y-4900000D02*
G75*
G02*
X18462000Y-4900000I50000J0D01*
G01*
X19608000Y-5080000D02*
G75*
G02*
X19508000Y-5080000I-50000J0D01*
G01*
X19508000Y-5080000D02*
G75*
G02*
X19608000Y-5080000I50000J0D01*
G01*
X19608000Y-5334000D02*
G75*
G02*
X19508000Y-5334000I-50000J0D01*
G01*
X19508000Y-5334000D02*
G75*
G02*
X19608000Y-5334000I50000J0D01*
G01*
X19608000Y-5588000D02*
G75*
G02*
X19508000Y-5588000I-50000J0D01*
G01*
X19508000Y-5588000D02*
G75*
G02*
X19608000Y-5588000I50000J0D01*
G01*
X19608000Y-5842000D02*
G75*
G02*
X19508000Y-5842000I-50000J0D01*
G01*
X19508000Y-5842000D02*
G75*
G02*
X19608000Y-5842000I50000J0D01*
G01*
X19608000Y-6096000D02*
G75*
G02*
X19508000Y-6096000I-50000J0D01*
G01*
X19508000Y-6096000D02*
G75*
G02*
X19608000Y-6096000I50000J0D01*
G01*
X19608000Y-6350000D02*
G75*
G02*
X19508000Y-6350000I-50000J0D01*
G01*
X19508000Y-6350000D02*
G75*
G02*
X19608000Y-6350000I50000J0D01*
G01*
X19608000Y-6604000D02*
G75*
G02*
X19508000Y-6604000I-50000J0D01*
G01*
X19508000Y-6604000D02*
G75*
G02*
X19608000Y-6604000I50000J0D01*
G01*
X19608000Y-6858000D02*
G75*
G02*
X19508000Y-6858000I-50000J0D01*
G01*
X19508000Y-6858000D02*
G75*
G02*
X19608000Y-6858000I50000J0D01*
G01*
X19608000Y-7112000D02*
G75*
G02*
X19508000Y-7112000I-50000J0D01*
G01*
X19508000Y-7112000D02*
G75*
G02*
X19608000Y-7112000I50000J0D01*
G01*
X19608000Y-7366000D02*
G75*
G02*
X19508000Y-7366000I-50000J0D01*
G01*
X19508000Y-7366000D02*
G75*
G02*
X19608000Y-7366000I50000J0D01*
G01*
X19608000Y-7620000D02*
G75*
G02*
X19508000Y-7620000I-50000J0D01*
G01*
X19508000Y-7620000D02*
G75*
G02*
X19608000Y-7620000I50000J0D01*
G01*
X19608000Y-7874000D02*
G75*
G02*
X19508000Y-7874000I-50000J0D01*
G01*
X19508000Y-7874000D02*
G75*
G02*
X19608000Y-7874000I50000J0D01*
G01*
X19608000Y-8128000D02*
G75*
G02*
X19508000Y-8128000I-50000J0D01*
G01*
X19508000Y-8128000D02*
G75*
G02*
X19608000Y-8128000I50000J0D01*
G01*
X19608000Y-8382000D02*
G75*
G02*
X19508000Y-8382000I-50000J0D01*
G01*
X19508000Y-8382000D02*
G75*
G02*
X19608000Y-8382000I50000J0D01*
G01*
X19608000Y-8636000D02*
G75*
G02*
X19508000Y-8636000I-50000J0D01*
G01*
X19508000Y-8636000D02*
G75*
G02*
X19608000Y-8636000I50000J0D01*
G01*
X19608000Y-8890000D02*
G75*
G02*
X19508000Y-8890000I-50000J0D01*
G01*
X19508000Y-8890000D02*
G75*
G02*
X19608000Y-8890000I50000J0D01*
G01*
X19608000Y-9144000D02*
G75*
G02*
X19508000Y-9144000I-50000J0D01*
G01*
X19508000Y-9144000D02*
G75*
G02*
X19608000Y-9144000I50000J0D01*
G01*
X19608000Y-9398000D02*
G75*
G02*
X19508000Y-9398000I-50000J0D01*
G01*
X19508000Y-9398000D02*
G75*
G02*
X19608000Y-9398000I50000J0D01*
G01*
X19608000Y-9652000D02*
G75*
G02*
X19508000Y-9652000I-50000J0D01*
G01*
X19508000Y-9652000D02*
G75*
G02*
X19608000Y-9652000I50000J0D01*
G01*
X19608000Y-9906000D02*
G75*
G02*
X19508000Y-9906000I-50000J0D01*
G01*
X19508000Y-9906000D02*
G75*
G02*
X19608000Y-9906000I50000J0D01*
G01*
X19608000Y-10160000D02*
G75*
G02*
X19508000Y-10160000I-50000J0D01*
G01*
X19508000Y-10160000D02*
G75*
G02*
X19608000Y-10160000I50000J0D01*
G01*
X19608000Y-10414000D02*
G75*
G02*
X19508000Y-10414000I-50000J0D01*
G01*
X19508000Y-10414000D02*
G75*
G02*
X19608000Y-10414000I50000J0D01*
G01*
X19608000Y-10668000D02*
G75*
G02*
X19508000Y-10668000I-50000J0D01*
G01*
X19508000Y-10668000D02*
G75*
G02*
X19608000Y-10668000I50000J0D01*
G01*
X19608000Y-10922000D02*
G75*
G02*
X19508000Y-10922000I-50000J0D01*
G01*
X19508000Y-10922000D02*
G75*
G02*
X19608000Y-10922000I50000J0D01*
G01*
X19608000Y-11176000D02*
G75*
G02*
X19508000Y-11176000I-50000J0D01*
G01*
X19508000Y-11176000D02*
G75*
G02*
X19608000Y-11176000I50000J0D01*
G01*
X19862000Y-5080000D02*
G75*
G02*
X19762000Y-5080000I-50000J0D01*
G01*
X19762000Y-5080000D02*
G75*
G02*
X19862000Y-5080000I50000J0D01*
G01*
X19862000Y-5334000D02*
G75*
G02*
X19762000Y-5334000I-50000J0D01*
G01*
X19762000Y-5334000D02*
G75*
G02*
X19862000Y-5334000I50000J0D01*
G01*
X19862000Y-5588000D02*
G75*
G02*
X19762000Y-5588000I-50000J0D01*
G01*
X19762000Y-5588000D02*
G75*
G02*
X19862000Y-5588000I50000J0D01*
G01*
X19862000Y-5842000D02*
G75*
G02*
X19762000Y-5842000I-50000J0D01*
G01*
X19762000Y-5842000D02*
G75*
G02*
X19862000Y-5842000I50000J0D01*
G01*
X19862000Y-6096000D02*
G75*
G02*
X19762000Y-6096000I-50000J0D01*
G01*
X19762000Y-6096000D02*
G75*
G02*
X19862000Y-6096000I50000J0D01*
G01*
X19862000Y-6350000D02*
G75*
G02*
X19762000Y-6350000I-50000J0D01*
G01*
X19762000Y-6350000D02*
G75*
G02*
X19862000Y-6350000I50000J0D01*
G01*
X19862000Y-6604000D02*
G75*
G02*
X19762000Y-6604000I-50000J0D01*
G01*
X19762000Y-6604000D02*
G75*
G02*
X19862000Y-6604000I50000J0D01*
G01*
X19862000Y-6858000D02*
G75*
G02*
X19762000Y-6858000I-50000J0D01*
G01*
X19762000Y-6858000D02*
G75*
G02*
X19862000Y-6858000I50000J0D01*
G01*
X19862000Y-7112000D02*
G75*
G02*
X19762000Y-7112000I-50000J0D01*
G01*
X19762000Y-7112000D02*
G75*
G02*
X19862000Y-7112000I50000J0D01*
G01*
X19862000Y-7366000D02*
G75*
G02*
X19762000Y-7366000I-50000J0D01*
G01*
X19762000Y-7366000D02*
G75*
G02*
X19862000Y-7366000I50000J0D01*
G01*
X19862000Y-7620000D02*
G75*
G02*
X19762000Y-7620000I-50000J0D01*
G01*
X19762000Y-7620000D02*
G75*
G02*
X19862000Y-7620000I50000J0D01*
G01*
X19862000Y-7874000D02*
G75*
G02*
X19762000Y-7874000I-50000J0D01*
G01*
X19762000Y-7874000D02*
G75*
G02*
X19862000Y-7874000I50000J0D01*
G01*
X19862000Y-8128000D02*
G75*
G02*
X19762000Y-8128000I-50000J0D01*
G01*
X19762000Y-8128000D02*
G75*
G02*
X19862000Y-8128000I50000J0D01*
G01*
X19862000Y-8382000D02*
G75*
G02*
X19762000Y-8382000I-50000J0D01*
G01*
X19762000Y-8382000D02*
G75*
G02*
X19862000Y-8382000I50000J0D01*
G01*
X19862000Y-8636000D02*
G75*
G02*
X19762000Y-8636000I-50000J0D01*
G01*
X19762000Y-8636000D02*
G75*
G02*
X19862000Y-8636000I50000J0D01*
G01*
X19862000Y-8890000D02*
G75*
G02*
X19762000Y-8890000I-50000J0D01*
G01*
X19762000Y-8890000D02*
G75*
G02*
X19862000Y-8890000I50000J0D01*
G01*
X19862000Y-9144000D02*
G75*
G02*
X19762000Y-9144000I-50000J0D01*
G01*
X19762000Y-9144000D02*
G75*
G02*
X19862000Y-9144000I50000J0D01*
G01*
X19862000Y-9398000D02*
G75*
G02*
X19762000Y-9398000I-50000J0D01*
G01*
X19762000Y-9398000D02*
G75*
G02*
X19862000Y-9398000I50000J0D01*
G01*
X19862000Y-9652000D02*
G75*
G02*
X19762000Y-9652000I-50000J0D01*
G01*
X19762000Y-9652000D02*
G75*
G02*
X19862000Y-9652000I50000J0D01*
G01*
X19862000Y-9906000D02*
G75*
G02*
X19762000Y-9906000I-50000J0D01*
G01*
X19762000Y-9906000D02*
G75*
G02*
X19862000Y-9906000I50000J0D01*
G01*
X19862000Y-10160000D02*
G75*
G02*
X19762000Y-10160000I-50000J0D01*
G01*
X19762000Y-10160000D02*
G75*
G02*
X19862000Y-10160000I50000J0D01*
G01*
X19862000Y-10414000D02*
G75*
G02*
X19762000Y-10414000I-50000J0D01*
G01*
X19762000Y-10414000D02*
G75*
G02*
X19862000Y-10414000I50000J0D01*
G01*
X19862000Y-10668000D02*
G75*
G02*
X19762000Y-10668000I-50000J0D01*
G01*
X19762000Y-10668000D02*
G75*
G02*
X19862000Y-10668000I50000J0D01*
G01*
X19862000Y-10922000D02*
G75*
G02*
X19762000Y-10922000I-50000J0D01*
G01*
X19762000Y-10922000D02*
G75*
G02*
X19862000Y-10922000I50000J0D01*
G01*
X19862000Y-11176000D02*
G75*
G02*
X19762000Y-11176000I-50000J0D01*
G01*
X19762000Y-11176000D02*
G75*
G02*
X19862000Y-11176000I50000J0D01*
G01*
D11*
X15608277Y-12813984D02*
X15608277Y-12613984D01*
X15608277Y-12613984D02*
X15655896Y-12613984D01*
X15655896Y-12613984D02*
X15684467Y-12623508D01*
X15684467Y-12623508D02*
X15703515Y-12642555D01*
X15703515Y-12642555D02*
X15713039Y-12661603D01*
X15713039Y-12661603D02*
X15722562Y-12699698D01*
X15722562Y-12699698D02*
X15722562Y-12728269D01*
X15722562Y-12728269D02*
X15713039Y-12766365D01*
X15713039Y-12766365D02*
X15703515Y-12785412D01*
X15703515Y-12785412D02*
X15684467Y-12804460D01*
X15684467Y-12804460D02*
X15655896Y-12813984D01*
X15655896Y-12813984D02*
X15608277Y-12813984D01*
X15808277Y-12813984D02*
X15808277Y-12680650D01*
X15808277Y-12718746D02*
X15817801Y-12699698D01*
X15817801Y-12699698D02*
X15827324Y-12690174D01*
X15827324Y-12690174D02*
X15846372Y-12680650D01*
X15846372Y-12680650D02*
X15865420Y-12680650D01*
X15932086Y-12813984D02*
X15932086Y-12680650D01*
X15932086Y-12613984D02*
X15922562Y-12623508D01*
X15922562Y-12623508D02*
X15932086Y-12633031D01*
X15932086Y-12633031D02*
X15941610Y-12623508D01*
X15941610Y-12623508D02*
X15932086Y-12613984D01*
X15932086Y-12613984D02*
X15932086Y-12633031D01*
X16055896Y-12813984D02*
X16036848Y-12804460D01*
X16036848Y-12804460D02*
X16027324Y-12785412D01*
X16027324Y-12785412D02*
X16027324Y-12613984D01*
X16160658Y-12813984D02*
X16141610Y-12804460D01*
X16141610Y-12804460D02*
X16132086Y-12785412D01*
X16132086Y-12785412D02*
X16132086Y-12613984D01*
X16389229Y-12813984D02*
X16389229Y-12613984D01*
X16389229Y-12613984D02*
X16455896Y-12756841D01*
X16455896Y-12756841D02*
X16522562Y-12613984D01*
X16522562Y-12613984D02*
X16522562Y-12813984D01*
X16703515Y-12813984D02*
X16703515Y-12709222D01*
X16703515Y-12709222D02*
X16693991Y-12690174D01*
X16693991Y-12690174D02*
X16674943Y-12680650D01*
X16674943Y-12680650D02*
X16636848Y-12680650D01*
X16636848Y-12680650D02*
X16617801Y-12690174D01*
X16703515Y-12804460D02*
X16684467Y-12813984D01*
X16684467Y-12813984D02*
X16636848Y-12813984D01*
X16636848Y-12813984D02*
X16617801Y-12804460D01*
X16617801Y-12804460D02*
X16608277Y-12785412D01*
X16608277Y-12785412D02*
X16608277Y-12766365D01*
X16608277Y-12766365D02*
X16617801Y-12747317D01*
X16617801Y-12747317D02*
X16636848Y-12737793D01*
X16636848Y-12737793D02*
X16684467Y-12737793D01*
X16684467Y-12737793D02*
X16703515Y-12728269D01*
X16798753Y-12680650D02*
X16798753Y-12880650D01*
X16798753Y-12690174D02*
X16817801Y-12680650D01*
X16817801Y-12680650D02*
X16855896Y-12680650D01*
X16855896Y-12680650D02*
X16874944Y-12690174D01*
X16874944Y-12690174D02*
X16884467Y-12699698D01*
X16884467Y-12699698D02*
X16893991Y-12718746D01*
X16893991Y-12718746D02*
X16893991Y-12775888D01*
X16893991Y-12775888D02*
X16884467Y-12794936D01*
X16884467Y-12794936D02*
X16874944Y-12804460D01*
X16874944Y-12804460D02*
X16855896Y-12813984D01*
X16855896Y-12813984D02*
X16817801Y-12813984D01*
X16817801Y-12813984D02*
X16798753Y-12804460D01*
X16979705Y-12794936D02*
X16989229Y-12804460D01*
X16989229Y-12804460D02*
X16979705Y-12813984D01*
X16979705Y-12813984D02*
X16970182Y-12804460D01*
X16970182Y-12804460D02*
X16979705Y-12794936D01*
X16979705Y-12794936D02*
X16979705Y-12813984D01*
X16979705Y-12690174D02*
X16989229Y-12699698D01*
X16989229Y-12699698D02*
X16979705Y-12709222D01*
X16979705Y-12709222D02*
X16970182Y-12699698D01*
X16970182Y-12699698D02*
X16979705Y-12690174D01*
X16979705Y-12690174D02*
X16979705Y-12709222D01*
D12*
X15267500Y-13102500D02*
X15347500Y-13182500D01*
X15347500Y-13102500D02*
X15267500Y-13182500D01*
D11*
X15646372Y-13033984D02*
X15665420Y-13033984D01*
X15665420Y-13033984D02*
X15684467Y-13043508D01*
X15684467Y-13043508D02*
X15693991Y-13053031D01*
X15693991Y-13053031D02*
X15703515Y-13072079D01*
X15703515Y-13072079D02*
X15713039Y-13110174D01*
X15713039Y-13110174D02*
X15713039Y-13157793D01*
X15713039Y-13157793D02*
X15703515Y-13195888D01*
X15703515Y-13195888D02*
X15693991Y-13214936D01*
X15693991Y-13214936D02*
X15684467Y-13224460D01*
X15684467Y-13224460D02*
X15665420Y-13233984D01*
X15665420Y-13233984D02*
X15646372Y-13233984D01*
X15646372Y-13233984D02*
X15627324Y-13224460D01*
X15627324Y-13224460D02*
X15617801Y-13214936D01*
X15617801Y-13214936D02*
X15608277Y-13195888D01*
X15608277Y-13195888D02*
X15598753Y-13157793D01*
X15598753Y-13157793D02*
X15598753Y-13110174D01*
X15598753Y-13110174D02*
X15608277Y-13072079D01*
X15608277Y-13072079D02*
X15617801Y-13053031D01*
X15617801Y-13053031D02*
X15627324Y-13043508D01*
X15627324Y-13043508D02*
X15646372Y-13033984D01*
X15798753Y-13214936D02*
X15808277Y-13224460D01*
X15808277Y-13224460D02*
X15798753Y-13233984D01*
X15798753Y-13233984D02*
X15789229Y-13224460D01*
X15789229Y-13224460D02*
X15798753Y-13214936D01*
X15798753Y-13214936D02*
X15798753Y-13233984D01*
X15922562Y-13119698D02*
X15903515Y-13110174D01*
X15903515Y-13110174D02*
X15893991Y-13100650D01*
X15893991Y-13100650D02*
X15884467Y-13081603D01*
X15884467Y-13081603D02*
X15884467Y-13072079D01*
X15884467Y-13072079D02*
X15893991Y-13053031D01*
X15893991Y-13053031D02*
X15903515Y-13043508D01*
X15903515Y-13043508D02*
X15922562Y-13033984D01*
X15922562Y-13033984D02*
X15960658Y-13033984D01*
X15960658Y-13033984D02*
X15979705Y-13043508D01*
X15979705Y-13043508D02*
X15989229Y-13053031D01*
X15989229Y-13053031D02*
X15998753Y-13072079D01*
X15998753Y-13072079D02*
X15998753Y-13081603D01*
X15998753Y-13081603D02*
X15989229Y-13100650D01*
X15989229Y-13100650D02*
X15979705Y-13110174D01*
X15979705Y-13110174D02*
X15960658Y-13119698D01*
X15960658Y-13119698D02*
X15922562Y-13119698D01*
X15922562Y-13119698D02*
X15903515Y-13129222D01*
X15903515Y-13129222D02*
X15893991Y-13138746D01*
X15893991Y-13138746D02*
X15884467Y-13157793D01*
X15884467Y-13157793D02*
X15884467Y-13195888D01*
X15884467Y-13195888D02*
X15893991Y-13214936D01*
X15893991Y-13214936D02*
X15903515Y-13224460D01*
X15903515Y-13224460D02*
X15922562Y-13233984D01*
X15922562Y-13233984D02*
X15960658Y-13233984D01*
X15960658Y-13233984D02*
X15979705Y-13224460D01*
X15979705Y-13224460D02*
X15989229Y-13214936D01*
X15989229Y-13214936D02*
X15998753Y-13195888D01*
X15998753Y-13195888D02*
X15998753Y-13157793D01*
X15998753Y-13157793D02*
X15989229Y-13138746D01*
X15989229Y-13138746D02*
X15979705Y-13129222D01*
X15979705Y-13129222D02*
X15960658Y-13119698D01*
X16122562Y-13033984D02*
X16141610Y-13033984D01*
X16141610Y-13033984D02*
X16160658Y-13043508D01*
X16160658Y-13043508D02*
X16170182Y-13053031D01*
X16170182Y-13053031D02*
X16179705Y-13072079D01*
X16179705Y-13072079D02*
X16189229Y-13110174D01*
X16189229Y-13110174D02*
X16189229Y-13157793D01*
X16189229Y-13157793D02*
X16179705Y-13195888D01*
X16179705Y-13195888D02*
X16170182Y-13214936D01*
X16170182Y-13214936D02*
X16160658Y-13224460D01*
X16160658Y-13224460D02*
X16141610Y-13233984D01*
X16141610Y-13233984D02*
X16122562Y-13233984D01*
X16122562Y-13233984D02*
X16103515Y-13224460D01*
X16103515Y-13224460D02*
X16093991Y-13214936D01*
X16093991Y-13214936D02*
X16084467Y-13195888D01*
X16084467Y-13195888D02*
X16074943Y-13157793D01*
X16074943Y-13157793D02*
X16074943Y-13110174D01*
X16074943Y-13110174D02*
X16084467Y-13072079D01*
X16084467Y-13072079D02*
X16093991Y-13053031D01*
X16093991Y-13053031D02*
X16103515Y-13043508D01*
X16103515Y-13043508D02*
X16122562Y-13033984D01*
X16313039Y-13033984D02*
X16332086Y-13033984D01*
X16332086Y-13033984D02*
X16351134Y-13043508D01*
X16351134Y-13043508D02*
X16360658Y-13053031D01*
X16360658Y-13053031D02*
X16370182Y-13072079D01*
X16370182Y-13072079D02*
X16379705Y-13110174D01*
X16379705Y-13110174D02*
X16379705Y-13157793D01*
X16379705Y-13157793D02*
X16370182Y-13195888D01*
X16370182Y-13195888D02*
X16360658Y-13214936D01*
X16360658Y-13214936D02*
X16351134Y-13224460D01*
X16351134Y-13224460D02*
X16332086Y-13233984D01*
X16332086Y-13233984D02*
X16313039Y-13233984D01*
X16313039Y-13233984D02*
X16293991Y-13224460D01*
X16293991Y-13224460D02*
X16284467Y-13214936D01*
X16284467Y-13214936D02*
X16274943Y-13195888D01*
X16274943Y-13195888D02*
X16265420Y-13157793D01*
X16265420Y-13157793D02*
X16265420Y-13110174D01*
X16265420Y-13110174D02*
X16274943Y-13072079D01*
X16274943Y-13072079D02*
X16284467Y-13053031D01*
X16284467Y-13053031D02*
X16293991Y-13043508D01*
X16293991Y-13043508D02*
X16313039Y-13033984D01*
X16465420Y-13233984D02*
X16465420Y-13100650D01*
X16465420Y-13119698D02*
X16474943Y-13110174D01*
X16474943Y-13110174D02*
X16493991Y-13100650D01*
X16493991Y-13100650D02*
X16522563Y-13100650D01*
X16522563Y-13100650D02*
X16541610Y-13110174D01*
X16541610Y-13110174D02*
X16551134Y-13129222D01*
X16551134Y-13129222D02*
X16551134Y-13233984D01*
X16551134Y-13129222D02*
X16560658Y-13110174D01*
X16560658Y-13110174D02*
X16579705Y-13100650D01*
X16579705Y-13100650D02*
X16608277Y-13100650D01*
X16608277Y-13100650D02*
X16627324Y-13110174D01*
X16627324Y-13110174D02*
X16636848Y-13129222D01*
X16636848Y-13129222D02*
X16636848Y-13233984D01*
X16732086Y-13233984D02*
X16732086Y-13100650D01*
X16732086Y-13119698D02*
X16741610Y-13110174D01*
X16741610Y-13110174D02*
X16760658Y-13100650D01*
X16760658Y-13100650D02*
X16789229Y-13100650D01*
X16789229Y-13100650D02*
X16808277Y-13110174D01*
X16808277Y-13110174D02*
X16817801Y-13129222D01*
X16817801Y-13129222D02*
X16817801Y-13233984D01*
X16817801Y-13129222D02*
X16827325Y-13110174D01*
X16827325Y-13110174D02*
X16846372Y-13100650D01*
X16846372Y-13100650D02*
X16874944Y-13100650D01*
X16874944Y-13100650D02*
X16893991Y-13110174D01*
X16893991Y-13110174D02*
X16903515Y-13129222D01*
X16903515Y-13129222D02*
X16903515Y-13233984D01*
X17293991Y-13024460D02*
X17122563Y-13281603D01*
X17551134Y-13033984D02*
X17570182Y-13033984D01*
X17570182Y-13033984D02*
X17589229Y-13043508D01*
X17589229Y-13043508D02*
X17598753Y-13053031D01*
X17598753Y-13053031D02*
X17608277Y-13072079D01*
X17608277Y-13072079D02*
X17617801Y-13110174D01*
X17617801Y-13110174D02*
X17617801Y-13157793D01*
X17617801Y-13157793D02*
X17608277Y-13195888D01*
X17608277Y-13195888D02*
X17598753Y-13214936D01*
X17598753Y-13214936D02*
X17589229Y-13224460D01*
X17589229Y-13224460D02*
X17570182Y-13233984D01*
X17570182Y-13233984D02*
X17551134Y-13233984D01*
X17551134Y-13233984D02*
X17532087Y-13224460D01*
X17532087Y-13224460D02*
X17522563Y-13214936D01*
X17522563Y-13214936D02*
X17513039Y-13195888D01*
X17513039Y-13195888D02*
X17503515Y-13157793D01*
X17503515Y-13157793D02*
X17503515Y-13110174D01*
X17503515Y-13110174D02*
X17513039Y-13072079D01*
X17513039Y-13072079D02*
X17522563Y-13053031D01*
X17522563Y-13053031D02*
X17532087Y-13043508D01*
X17532087Y-13043508D02*
X17551134Y-13033984D01*
X17703515Y-13214936D02*
X17713039Y-13224460D01*
X17713039Y-13224460D02*
X17703515Y-13233984D01*
X17703515Y-13233984D02*
X17693991Y-13224460D01*
X17693991Y-13224460D02*
X17703515Y-13214936D01*
X17703515Y-13214936D02*
X17703515Y-13233984D01*
X17836848Y-13033984D02*
X17855896Y-13033984D01*
X17855896Y-13033984D02*
X17874944Y-13043508D01*
X17874944Y-13043508D02*
X17884468Y-13053031D01*
X17884468Y-13053031D02*
X17893991Y-13072079D01*
X17893991Y-13072079D02*
X17903515Y-13110174D01*
X17903515Y-13110174D02*
X17903515Y-13157793D01*
X17903515Y-13157793D02*
X17893991Y-13195888D01*
X17893991Y-13195888D02*
X17884468Y-13214936D01*
X17884468Y-13214936D02*
X17874944Y-13224460D01*
X17874944Y-13224460D02*
X17855896Y-13233984D01*
X17855896Y-13233984D02*
X17836848Y-13233984D01*
X17836848Y-13233984D02*
X17817801Y-13224460D01*
X17817801Y-13224460D02*
X17808277Y-13214936D01*
X17808277Y-13214936D02*
X17798753Y-13195888D01*
X17798753Y-13195888D02*
X17789229Y-13157793D01*
X17789229Y-13157793D02*
X17789229Y-13110174D01*
X17789229Y-13110174D02*
X17798753Y-13072079D01*
X17798753Y-13072079D02*
X17808277Y-13053031D01*
X17808277Y-13053031D02*
X17817801Y-13043508D01*
X17817801Y-13043508D02*
X17836848Y-13033984D01*
X17970182Y-13033984D02*
X18093991Y-13033984D01*
X18093991Y-13033984D02*
X18027325Y-13110174D01*
X18027325Y-13110174D02*
X18055896Y-13110174D01*
X18055896Y-13110174D02*
X18074944Y-13119698D01*
X18074944Y-13119698D02*
X18084468Y-13129222D01*
X18084468Y-13129222D02*
X18093991Y-13148269D01*
X18093991Y-13148269D02*
X18093991Y-13195888D01*
X18093991Y-13195888D02*
X18084468Y-13214936D01*
X18084468Y-13214936D02*
X18074944Y-13224460D01*
X18074944Y-13224460D02*
X18055896Y-13233984D01*
X18055896Y-13233984D02*
X17998753Y-13233984D01*
X17998753Y-13233984D02*
X17979706Y-13224460D01*
X17979706Y-13224460D02*
X17970182Y-13214936D01*
X18284468Y-13233984D02*
X18170182Y-13233984D01*
X18227325Y-13233984D02*
X18227325Y-13033984D01*
X18227325Y-13033984D02*
X18208277Y-13062555D01*
X18208277Y-13062555D02*
X18189229Y-13081603D01*
X18189229Y-13081603D02*
X18170182Y-13091127D01*
X18465420Y-13033984D02*
X18370182Y-13033984D01*
X18370182Y-13033984D02*
X18360658Y-13129222D01*
X18360658Y-13129222D02*
X18370182Y-13119698D01*
X18370182Y-13119698D02*
X18389229Y-13110174D01*
X18389229Y-13110174D02*
X18436849Y-13110174D01*
X18436849Y-13110174D02*
X18455896Y-13119698D01*
X18455896Y-13119698D02*
X18465420Y-13129222D01*
X18465420Y-13129222D02*
X18474944Y-13148269D01*
X18474944Y-13148269D02*
X18474944Y-13195888D01*
X18474944Y-13195888D02*
X18465420Y-13214936D01*
X18465420Y-13214936D02*
X18455896Y-13224460D01*
X18455896Y-13224460D02*
X18436849Y-13233984D01*
X18436849Y-13233984D02*
X18389229Y-13233984D01*
X18389229Y-13233984D02*
X18370182Y-13224460D01*
X18370182Y-13224460D02*
X18360658Y-13214936D01*
X18551134Y-13033984D02*
X18551134Y-13072079D01*
X18627325Y-13033984D02*
X18627325Y-13072079D01*
X18922563Y-13310174D02*
X18913039Y-13300650D01*
X18913039Y-13300650D02*
X18893991Y-13272079D01*
X18893991Y-13272079D02*
X18884468Y-13253031D01*
X18884468Y-13253031D02*
X18874944Y-13224460D01*
X18874944Y-13224460D02*
X18865420Y-13176841D01*
X18865420Y-13176841D02*
X18865420Y-13138746D01*
X18865420Y-13138746D02*
X18874944Y-13091127D01*
X18874944Y-13091127D02*
X18884468Y-13062555D01*
X18884468Y-13062555D02*
X18893991Y-13043508D01*
X18893991Y-13043508D02*
X18913039Y-13014936D01*
X18913039Y-13014936D02*
X18922563Y-13005412D01*
X19084468Y-13100650D02*
X19084468Y-13233984D01*
X19036849Y-13024460D02*
X18989230Y-13167317D01*
X18989230Y-13167317D02*
X19113039Y-13167317D01*
X19227325Y-13033984D02*
X19246372Y-13033984D01*
X19246372Y-13033984D02*
X19265420Y-13043508D01*
X19265420Y-13043508D02*
X19274944Y-13053031D01*
X19274944Y-13053031D02*
X19284468Y-13072079D01*
X19284468Y-13072079D02*
X19293991Y-13110174D01*
X19293991Y-13110174D02*
X19293991Y-13157793D01*
X19293991Y-13157793D02*
X19284468Y-13195888D01*
X19284468Y-13195888D02*
X19274944Y-13214936D01*
X19274944Y-13214936D02*
X19265420Y-13224460D01*
X19265420Y-13224460D02*
X19246372Y-13233984D01*
X19246372Y-13233984D02*
X19227325Y-13233984D01*
X19227325Y-13233984D02*
X19208277Y-13224460D01*
X19208277Y-13224460D02*
X19198753Y-13214936D01*
X19198753Y-13214936D02*
X19189230Y-13195888D01*
X19189230Y-13195888D02*
X19179706Y-13157793D01*
X19179706Y-13157793D02*
X19179706Y-13110174D01*
X19179706Y-13110174D02*
X19189230Y-13072079D01*
X19189230Y-13072079D02*
X19198753Y-13053031D01*
X19198753Y-13053031D02*
X19208277Y-13043508D01*
X19208277Y-13043508D02*
X19227325Y-13033984D01*
X19532087Y-13233984D02*
X19532087Y-13033984D01*
X19617801Y-13233984D02*
X19617801Y-13129222D01*
X19617801Y-13129222D02*
X19608277Y-13110174D01*
X19608277Y-13110174D02*
X19589230Y-13100650D01*
X19589230Y-13100650D02*
X19560658Y-13100650D01*
X19560658Y-13100650D02*
X19541611Y-13110174D01*
X19541611Y-13110174D02*
X19532087Y-13119698D01*
X19741611Y-13233984D02*
X19722563Y-13224460D01*
X19722563Y-13224460D02*
X19713039Y-13214936D01*
X19713039Y-13214936D02*
X19703515Y-13195888D01*
X19703515Y-13195888D02*
X19703515Y-13138746D01*
X19703515Y-13138746D02*
X19713039Y-13119698D01*
X19713039Y-13119698D02*
X19722563Y-13110174D01*
X19722563Y-13110174D02*
X19741611Y-13100650D01*
X19741611Y-13100650D02*
X19770182Y-13100650D01*
X19770182Y-13100650D02*
X19789230Y-13110174D01*
X19789230Y-13110174D02*
X19798753Y-13119698D01*
X19798753Y-13119698D02*
X19808277Y-13138746D01*
X19808277Y-13138746D02*
X19808277Y-13195888D01*
X19808277Y-13195888D02*
X19798753Y-13214936D01*
X19798753Y-13214936D02*
X19789230Y-13224460D01*
X19789230Y-13224460D02*
X19770182Y-13233984D01*
X19770182Y-13233984D02*
X19741611Y-13233984D01*
X19922563Y-13233984D02*
X19903515Y-13224460D01*
X19903515Y-13224460D02*
X19893992Y-13205412D01*
X19893992Y-13205412D02*
X19893992Y-13033984D01*
X20074944Y-13224460D02*
X20055896Y-13233984D01*
X20055896Y-13233984D02*
X20017801Y-13233984D01*
X20017801Y-13233984D02*
X19998753Y-13224460D01*
X19998753Y-13224460D02*
X19989230Y-13205412D01*
X19989230Y-13205412D02*
X19989230Y-13129222D01*
X19989230Y-13129222D02*
X19998753Y-13110174D01*
X19998753Y-13110174D02*
X20017801Y-13100650D01*
X20017801Y-13100650D02*
X20055896Y-13100650D01*
X20055896Y-13100650D02*
X20074944Y-13110174D01*
X20074944Y-13110174D02*
X20084468Y-13129222D01*
X20084468Y-13129222D02*
X20084468Y-13148269D01*
X20084468Y-13148269D02*
X19989230Y-13167317D01*
X20160658Y-13224460D02*
X20179706Y-13233984D01*
X20179706Y-13233984D02*
X20217801Y-13233984D01*
X20217801Y-13233984D02*
X20236849Y-13224460D01*
X20236849Y-13224460D02*
X20246373Y-13205412D01*
X20246373Y-13205412D02*
X20246373Y-13195888D01*
X20246373Y-13195888D02*
X20236849Y-13176841D01*
X20236849Y-13176841D02*
X20217801Y-13167317D01*
X20217801Y-13167317D02*
X20189230Y-13167317D01*
X20189230Y-13167317D02*
X20170182Y-13157793D01*
X20170182Y-13157793D02*
X20160658Y-13138746D01*
X20160658Y-13138746D02*
X20160658Y-13129222D01*
X20160658Y-13129222D02*
X20170182Y-13110174D01*
X20170182Y-13110174D02*
X20189230Y-13100650D01*
X20189230Y-13100650D02*
X20217801Y-13100650D01*
X20217801Y-13100650D02*
X20236849Y-13110174D01*
X20313039Y-13310174D02*
X20322563Y-13300650D01*
X20322563Y-13300650D02*
X20341611Y-13272079D01*
X20341611Y-13272079D02*
X20351134Y-13253031D01*
X20351134Y-13253031D02*
X20360658Y-13224460D01*
X20360658Y-13224460D02*
X20370182Y-13176841D01*
X20370182Y-13176841D02*
X20370182Y-13138746D01*
X20370182Y-13138746D02*
X20360658Y-13091127D01*
X20360658Y-13091127D02*
X20351134Y-13062555D01*
X20351134Y-13062555D02*
X20341611Y-13043508D01*
X20341611Y-13043508D02*
X20322563Y-13014936D01*
X20322563Y-13014936D02*
X20313039Y-13005412D01*
D12*
X15347500Y-13406500D02*
G75*
G02*
X15247500Y-13406500I-50000J0D01*
G01*
X15247500Y-13406500D02*
G75*
G02*
X15347500Y-13406500I50000J0D01*
G01*
D11*
X15713039Y-13497984D02*
X15598753Y-13497984D01*
X15655896Y-13497984D02*
X15655896Y-13297984D01*
X15655896Y-13297984D02*
X15636848Y-13326555D01*
X15636848Y-13326555D02*
X15617801Y-13345603D01*
X15617801Y-13345603D02*
X15598753Y-13355127D01*
X15798753Y-13478936D02*
X15808277Y-13488460D01*
X15808277Y-13488460D02*
X15798753Y-13497984D01*
X15798753Y-13497984D02*
X15789229Y-13488460D01*
X15789229Y-13488460D02*
X15798753Y-13478936D01*
X15798753Y-13478936D02*
X15798753Y-13497984D01*
X15932086Y-13297984D02*
X15951134Y-13297984D01*
X15951134Y-13297984D02*
X15970182Y-13307508D01*
X15970182Y-13307508D02*
X15979705Y-13317031D01*
X15979705Y-13317031D02*
X15989229Y-13336079D01*
X15989229Y-13336079D02*
X15998753Y-13374174D01*
X15998753Y-13374174D02*
X15998753Y-13421793D01*
X15998753Y-13421793D02*
X15989229Y-13459888D01*
X15989229Y-13459888D02*
X15979705Y-13478936D01*
X15979705Y-13478936D02*
X15970182Y-13488460D01*
X15970182Y-13488460D02*
X15951134Y-13497984D01*
X15951134Y-13497984D02*
X15932086Y-13497984D01*
X15932086Y-13497984D02*
X15913039Y-13488460D01*
X15913039Y-13488460D02*
X15903515Y-13478936D01*
X15903515Y-13478936D02*
X15893991Y-13459888D01*
X15893991Y-13459888D02*
X15884467Y-13421793D01*
X15884467Y-13421793D02*
X15884467Y-13374174D01*
X15884467Y-13374174D02*
X15893991Y-13336079D01*
X15893991Y-13336079D02*
X15903515Y-13317031D01*
X15903515Y-13317031D02*
X15913039Y-13307508D01*
X15913039Y-13307508D02*
X15932086Y-13297984D01*
X16122562Y-13297984D02*
X16141610Y-13297984D01*
X16141610Y-13297984D02*
X16160658Y-13307508D01*
X16160658Y-13307508D02*
X16170182Y-13317031D01*
X16170182Y-13317031D02*
X16179705Y-13336079D01*
X16179705Y-13336079D02*
X16189229Y-13374174D01*
X16189229Y-13374174D02*
X16189229Y-13421793D01*
X16189229Y-13421793D02*
X16179705Y-13459888D01*
X16179705Y-13459888D02*
X16170182Y-13478936D01*
X16170182Y-13478936D02*
X16160658Y-13488460D01*
X16160658Y-13488460D02*
X16141610Y-13497984D01*
X16141610Y-13497984D02*
X16122562Y-13497984D01*
X16122562Y-13497984D02*
X16103515Y-13488460D01*
X16103515Y-13488460D02*
X16093991Y-13478936D01*
X16093991Y-13478936D02*
X16084467Y-13459888D01*
X16084467Y-13459888D02*
X16074943Y-13421793D01*
X16074943Y-13421793D02*
X16074943Y-13374174D01*
X16074943Y-13374174D02*
X16084467Y-13336079D01*
X16084467Y-13336079D02*
X16093991Y-13317031D01*
X16093991Y-13317031D02*
X16103515Y-13307508D01*
X16103515Y-13307508D02*
X16122562Y-13297984D01*
X16313039Y-13297984D02*
X16332086Y-13297984D01*
X16332086Y-13297984D02*
X16351134Y-13307508D01*
X16351134Y-13307508D02*
X16360658Y-13317031D01*
X16360658Y-13317031D02*
X16370182Y-13336079D01*
X16370182Y-13336079D02*
X16379705Y-13374174D01*
X16379705Y-13374174D02*
X16379705Y-13421793D01*
X16379705Y-13421793D02*
X16370182Y-13459888D01*
X16370182Y-13459888D02*
X16360658Y-13478936D01*
X16360658Y-13478936D02*
X16351134Y-13488460D01*
X16351134Y-13488460D02*
X16332086Y-13497984D01*
X16332086Y-13497984D02*
X16313039Y-13497984D01*
X16313039Y-13497984D02*
X16293991Y-13488460D01*
X16293991Y-13488460D02*
X16284467Y-13478936D01*
X16284467Y-13478936D02*
X16274943Y-13459888D01*
X16274943Y-13459888D02*
X16265420Y-13421793D01*
X16265420Y-13421793D02*
X16265420Y-13374174D01*
X16265420Y-13374174D02*
X16274943Y-13336079D01*
X16274943Y-13336079D02*
X16284467Y-13317031D01*
X16284467Y-13317031D02*
X16293991Y-13307508D01*
X16293991Y-13307508D02*
X16313039Y-13297984D01*
X16465420Y-13497984D02*
X16465420Y-13364650D01*
X16465420Y-13383698D02*
X16474943Y-13374174D01*
X16474943Y-13374174D02*
X16493991Y-13364650D01*
X16493991Y-13364650D02*
X16522563Y-13364650D01*
X16522563Y-13364650D02*
X16541610Y-13374174D01*
X16541610Y-13374174D02*
X16551134Y-13393222D01*
X16551134Y-13393222D02*
X16551134Y-13497984D01*
X16551134Y-13393222D02*
X16560658Y-13374174D01*
X16560658Y-13374174D02*
X16579705Y-13364650D01*
X16579705Y-13364650D02*
X16608277Y-13364650D01*
X16608277Y-13364650D02*
X16627324Y-13374174D01*
X16627324Y-13374174D02*
X16636848Y-13393222D01*
X16636848Y-13393222D02*
X16636848Y-13497984D01*
X16732086Y-13497984D02*
X16732086Y-13364650D01*
X16732086Y-13383698D02*
X16741610Y-13374174D01*
X16741610Y-13374174D02*
X16760658Y-13364650D01*
X16760658Y-13364650D02*
X16789229Y-13364650D01*
X16789229Y-13364650D02*
X16808277Y-13374174D01*
X16808277Y-13374174D02*
X16817801Y-13393222D01*
X16817801Y-13393222D02*
X16817801Y-13497984D01*
X16817801Y-13393222D02*
X16827325Y-13374174D01*
X16827325Y-13374174D02*
X16846372Y-13364650D01*
X16846372Y-13364650D02*
X16874944Y-13364650D01*
X16874944Y-13364650D02*
X16893991Y-13374174D01*
X16893991Y-13374174D02*
X16903515Y-13393222D01*
X16903515Y-13393222D02*
X16903515Y-13497984D01*
X17293991Y-13288460D02*
X17122563Y-13545603D01*
X17551134Y-13297984D02*
X17570182Y-13297984D01*
X17570182Y-13297984D02*
X17589229Y-13307508D01*
X17589229Y-13307508D02*
X17598753Y-13317031D01*
X17598753Y-13317031D02*
X17608277Y-13336079D01*
X17608277Y-13336079D02*
X17617801Y-13374174D01*
X17617801Y-13374174D02*
X17617801Y-13421793D01*
X17617801Y-13421793D02*
X17608277Y-13459888D01*
X17608277Y-13459888D02*
X17598753Y-13478936D01*
X17598753Y-13478936D02*
X17589229Y-13488460D01*
X17589229Y-13488460D02*
X17570182Y-13497984D01*
X17570182Y-13497984D02*
X17551134Y-13497984D01*
X17551134Y-13497984D02*
X17532087Y-13488460D01*
X17532087Y-13488460D02*
X17522563Y-13478936D01*
X17522563Y-13478936D02*
X17513039Y-13459888D01*
X17513039Y-13459888D02*
X17503515Y-13421793D01*
X17503515Y-13421793D02*
X17503515Y-13374174D01*
X17503515Y-13374174D02*
X17513039Y-13336079D01*
X17513039Y-13336079D02*
X17522563Y-13317031D01*
X17522563Y-13317031D02*
X17532087Y-13307508D01*
X17532087Y-13307508D02*
X17551134Y-13297984D01*
X17703515Y-13478936D02*
X17713039Y-13488460D01*
X17713039Y-13488460D02*
X17703515Y-13497984D01*
X17703515Y-13497984D02*
X17693991Y-13488460D01*
X17693991Y-13488460D02*
X17703515Y-13478936D01*
X17703515Y-13478936D02*
X17703515Y-13497984D01*
X17836848Y-13297984D02*
X17855896Y-13297984D01*
X17855896Y-13297984D02*
X17874944Y-13307508D01*
X17874944Y-13307508D02*
X17884468Y-13317031D01*
X17884468Y-13317031D02*
X17893991Y-13336079D01*
X17893991Y-13336079D02*
X17903515Y-13374174D01*
X17903515Y-13374174D02*
X17903515Y-13421793D01*
X17903515Y-13421793D02*
X17893991Y-13459888D01*
X17893991Y-13459888D02*
X17884468Y-13478936D01*
X17884468Y-13478936D02*
X17874944Y-13488460D01*
X17874944Y-13488460D02*
X17855896Y-13497984D01*
X17855896Y-13497984D02*
X17836848Y-13497984D01*
X17836848Y-13497984D02*
X17817801Y-13488460D01*
X17817801Y-13488460D02*
X17808277Y-13478936D01*
X17808277Y-13478936D02*
X17798753Y-13459888D01*
X17798753Y-13459888D02*
X17789229Y-13421793D01*
X17789229Y-13421793D02*
X17789229Y-13374174D01*
X17789229Y-13374174D02*
X17798753Y-13336079D01*
X17798753Y-13336079D02*
X17808277Y-13317031D01*
X17808277Y-13317031D02*
X17817801Y-13307508D01*
X17817801Y-13307508D02*
X17836848Y-13297984D01*
X17970182Y-13297984D02*
X18093991Y-13297984D01*
X18093991Y-13297984D02*
X18027325Y-13374174D01*
X18027325Y-13374174D02*
X18055896Y-13374174D01*
X18055896Y-13374174D02*
X18074944Y-13383698D01*
X18074944Y-13383698D02*
X18084468Y-13393222D01*
X18084468Y-13393222D02*
X18093991Y-13412269D01*
X18093991Y-13412269D02*
X18093991Y-13459888D01*
X18093991Y-13459888D02*
X18084468Y-13478936D01*
X18084468Y-13478936D02*
X18074944Y-13488460D01*
X18074944Y-13488460D02*
X18055896Y-13497984D01*
X18055896Y-13497984D02*
X17998753Y-13497984D01*
X17998753Y-13497984D02*
X17979706Y-13488460D01*
X17979706Y-13488460D02*
X17970182Y-13478936D01*
X18189229Y-13497984D02*
X18227325Y-13497984D01*
X18227325Y-13497984D02*
X18246372Y-13488460D01*
X18246372Y-13488460D02*
X18255896Y-13478936D01*
X18255896Y-13478936D02*
X18274944Y-13450365D01*
X18274944Y-13450365D02*
X18284468Y-13412269D01*
X18284468Y-13412269D02*
X18284468Y-13336079D01*
X18284468Y-13336079D02*
X18274944Y-13317031D01*
X18274944Y-13317031D02*
X18265420Y-13307508D01*
X18265420Y-13307508D02*
X18246372Y-13297984D01*
X18246372Y-13297984D02*
X18208277Y-13297984D01*
X18208277Y-13297984D02*
X18189229Y-13307508D01*
X18189229Y-13307508D02*
X18179706Y-13317031D01*
X18179706Y-13317031D02*
X18170182Y-13336079D01*
X18170182Y-13336079D02*
X18170182Y-13383698D01*
X18170182Y-13383698D02*
X18179706Y-13402746D01*
X18179706Y-13402746D02*
X18189229Y-13412269D01*
X18189229Y-13412269D02*
X18208277Y-13421793D01*
X18208277Y-13421793D02*
X18246372Y-13421793D01*
X18246372Y-13421793D02*
X18265420Y-13412269D01*
X18265420Y-13412269D02*
X18274944Y-13402746D01*
X18274944Y-13402746D02*
X18284468Y-13383698D01*
X18455896Y-13364650D02*
X18455896Y-13497984D01*
X18408277Y-13288460D02*
X18360658Y-13431317D01*
X18360658Y-13431317D02*
X18484468Y-13431317D01*
X18551134Y-13297984D02*
X18551134Y-13336079D01*
X18627325Y-13297984D02*
X18627325Y-13336079D01*
X18922563Y-13574174D02*
X18913039Y-13564650D01*
X18913039Y-13564650D02*
X18893991Y-13536079D01*
X18893991Y-13536079D02*
X18884468Y-13517031D01*
X18884468Y-13517031D02*
X18874944Y-13488460D01*
X18874944Y-13488460D02*
X18865420Y-13440841D01*
X18865420Y-13440841D02*
X18865420Y-13402746D01*
X18865420Y-13402746D02*
X18874944Y-13355127D01*
X18874944Y-13355127D02*
X18884468Y-13326555D01*
X18884468Y-13326555D02*
X18893991Y-13307508D01*
X18893991Y-13307508D02*
X18913039Y-13278936D01*
X18913039Y-13278936D02*
X18922563Y-13269412D01*
X19093991Y-13297984D02*
X18998753Y-13297984D01*
X18998753Y-13297984D02*
X18989230Y-13393222D01*
X18989230Y-13393222D02*
X18998753Y-13383698D01*
X18998753Y-13383698D02*
X19017801Y-13374174D01*
X19017801Y-13374174D02*
X19065420Y-13374174D01*
X19065420Y-13374174D02*
X19084468Y-13383698D01*
X19084468Y-13383698D02*
X19093991Y-13393222D01*
X19093991Y-13393222D02*
X19103515Y-13412269D01*
X19103515Y-13412269D02*
X19103515Y-13459888D01*
X19103515Y-13459888D02*
X19093991Y-13478936D01*
X19093991Y-13478936D02*
X19084468Y-13488460D01*
X19084468Y-13488460D02*
X19065420Y-13497984D01*
X19065420Y-13497984D02*
X19017801Y-13497984D01*
X19017801Y-13497984D02*
X18998753Y-13488460D01*
X18998753Y-13488460D02*
X18989230Y-13478936D01*
X19274944Y-13364650D02*
X19274944Y-13497984D01*
X19227325Y-13288460D02*
X19179706Y-13431317D01*
X19179706Y-13431317D02*
X19303515Y-13431317D01*
X19532087Y-13497984D02*
X19532087Y-13297984D01*
X19617801Y-13497984D02*
X19617801Y-13393222D01*
X19617801Y-13393222D02*
X19608277Y-13374174D01*
X19608277Y-13374174D02*
X19589230Y-13364650D01*
X19589230Y-13364650D02*
X19560658Y-13364650D01*
X19560658Y-13364650D02*
X19541611Y-13374174D01*
X19541611Y-13374174D02*
X19532087Y-13383698D01*
X19741611Y-13497984D02*
X19722563Y-13488460D01*
X19722563Y-13488460D02*
X19713039Y-13478936D01*
X19713039Y-13478936D02*
X19703515Y-13459888D01*
X19703515Y-13459888D02*
X19703515Y-13402746D01*
X19703515Y-13402746D02*
X19713039Y-13383698D01*
X19713039Y-13383698D02*
X19722563Y-13374174D01*
X19722563Y-13374174D02*
X19741611Y-13364650D01*
X19741611Y-13364650D02*
X19770182Y-13364650D01*
X19770182Y-13364650D02*
X19789230Y-13374174D01*
X19789230Y-13374174D02*
X19798753Y-13383698D01*
X19798753Y-13383698D02*
X19808277Y-13402746D01*
X19808277Y-13402746D02*
X19808277Y-13459888D01*
X19808277Y-13459888D02*
X19798753Y-13478936D01*
X19798753Y-13478936D02*
X19789230Y-13488460D01*
X19789230Y-13488460D02*
X19770182Y-13497984D01*
X19770182Y-13497984D02*
X19741611Y-13497984D01*
X19922563Y-13497984D02*
X19903515Y-13488460D01*
X19903515Y-13488460D02*
X19893992Y-13469412D01*
X19893992Y-13469412D02*
X19893992Y-13297984D01*
X20074944Y-13488460D02*
X20055896Y-13497984D01*
X20055896Y-13497984D02*
X20017801Y-13497984D01*
X20017801Y-13497984D02*
X19998753Y-13488460D01*
X19998753Y-13488460D02*
X19989230Y-13469412D01*
X19989230Y-13469412D02*
X19989230Y-13393222D01*
X19989230Y-13393222D02*
X19998753Y-13374174D01*
X19998753Y-13374174D02*
X20017801Y-13364650D01*
X20017801Y-13364650D02*
X20055896Y-13364650D01*
X20055896Y-13364650D02*
X20074944Y-13374174D01*
X20074944Y-13374174D02*
X20084468Y-13393222D01*
X20084468Y-13393222D02*
X20084468Y-13412269D01*
X20084468Y-13412269D02*
X19989230Y-13431317D01*
X20160658Y-13488460D02*
X20179706Y-13497984D01*
X20179706Y-13497984D02*
X20217801Y-13497984D01*
X20217801Y-13497984D02*
X20236849Y-13488460D01*
X20236849Y-13488460D02*
X20246373Y-13469412D01*
X20246373Y-13469412D02*
X20246373Y-13459888D01*
X20246373Y-13459888D02*
X20236849Y-13440841D01*
X20236849Y-13440841D02*
X20217801Y-13431317D01*
X20217801Y-13431317D02*
X20189230Y-13431317D01*
X20189230Y-13431317D02*
X20170182Y-13421793D01*
X20170182Y-13421793D02*
X20160658Y-13402746D01*
X20160658Y-13402746D02*
X20160658Y-13393222D01*
X20160658Y-13393222D02*
X20170182Y-13374174D01*
X20170182Y-13374174D02*
X20189230Y-13364650D01*
X20189230Y-13364650D02*
X20217801Y-13364650D01*
X20217801Y-13364650D02*
X20236849Y-13374174D01*
X20313039Y-13574174D02*
X20322563Y-13564650D01*
X20322563Y-13564650D02*
X20341611Y-13536079D01*
X20341611Y-13536079D02*
X20351134Y-13517031D01*
X20351134Y-13517031D02*
X20360658Y-13488460D01*
X20360658Y-13488460D02*
X20370182Y-13440841D01*
X20370182Y-13440841D02*
X20370182Y-13402746D01*
X20370182Y-13402746D02*
X20360658Y-13355127D01*
X20360658Y-13355127D02*
X20351134Y-13326555D01*
X20351134Y-13326555D02*
X20341611Y-13307508D01*
X20341611Y-13307508D02*
X20322563Y-13278936D01*
X20322563Y-13278936D02*
X20313039Y-13269412D01*
M02*
