%TF.GenerationSoftware,KiCad,Pcbnew,8.0.1*%
%TF.CreationDate,2024-04-03T11:18:02-05:00*%
%TF.ProjectId,SCSI-Adapter,53435349-2d41-4646-9170-7465722e6b69,rev?*%
%TF.SameCoordinates,Original*%
%TF.FileFunction,Copper,L1,Top*%
%TF.FilePolarity,Positive*%
%FSLAX46Y46*%
G04 Gerber Fmt 4.6, Leading zero omitted, Abs format (unit mm)*
G04 Created by KiCad (PCBNEW 8.0.1) date 2024-04-03 11:18:02*
%MOMM*%
%LPD*%
G01*
G04 APERTURE LIST*
G04 Aperture macros list*
%AMRoundRect*
0 Rectangle with rounded corners*
0 $1 Rounding radius*
0 $2 $3 $4 $5 $6 $7 $8 $9 X,Y pos of 4 corners*
0 Add a 4 corners polygon primitive as box body*
4,1,4,$2,$3,$4,$5,$6,$7,$8,$9,$2,$3,0*
0 Add four circle primitives for the rounded corners*
1,1,$1+$1,$2,$3*
1,1,$1+$1,$4,$5*
1,1,$1+$1,$6,$7*
1,1,$1+$1,$8,$9*
0 Add four rect primitives between the rounded corners*
20,1,$1+$1,$2,$3,$4,$5,0*
20,1,$1+$1,$4,$5,$6,$7,0*
20,1,$1+$1,$6,$7,$8,$9,0*
20,1,$1+$1,$8,$9,$2,$3,0*%
G04 Aperture macros list end*
%TA.AperFunction,ComponentPad*%
%ADD10RoundRect,0.250000X-0.600000X-0.600000X0.600000X-0.600000X0.600000X0.600000X-0.600000X0.600000X0*%
%TD*%
%TA.AperFunction,ComponentPad*%
%ADD11C,1.700000*%
%TD*%
%TA.AperFunction,ComponentPad*%
%ADD12R,1.700000X1.700000*%
%TD*%
%TA.AperFunction,ComponentPad*%
%ADD13O,1.700000X1.700000*%
%TD*%
%TA.AperFunction,ComponentPad*%
%ADD14R,1.350000X1.350000*%
%TD*%
%TA.AperFunction,ComponentPad*%
%ADD15O,1.350000X1.350000*%
%TD*%
%TA.AperFunction,Conductor*%
%ADD16C,0.200000*%
%TD*%
G04 APERTURE END LIST*
D10*
%TO.P,J2,1,Pin_1*%
%TO.N,GND*%
X195580000Y-50800000D03*
D11*
%TO.P,J2,2,Pin_2*%
%TO.N,/D0*%
X198120000Y-50800000D03*
%TO.P,J2,3,Pin_3*%
%TO.N,GND*%
X195580000Y-53340000D03*
%TO.P,J2,4,Pin_4*%
%TO.N,/D1*%
X198120000Y-53340000D03*
%TO.P,J2,5,Pin_5*%
%TO.N,GND*%
X195580000Y-55880000D03*
%TO.P,J2,6,Pin_6*%
%TO.N,/D2*%
X198120000Y-55880000D03*
%TO.P,J2,7,Pin_7*%
%TO.N,GND*%
X195580000Y-58420000D03*
%TO.P,J2,8,Pin_8*%
%TO.N,/D3*%
X198120000Y-58420000D03*
%TO.P,J2,9,Pin_9*%
%TO.N,GND*%
X195580000Y-60960000D03*
%TO.P,J2,10,Pin_10*%
%TO.N,/D4*%
X198120000Y-60960000D03*
%TO.P,J2,11,Pin_11*%
%TO.N,GND*%
X195580000Y-63500000D03*
%TO.P,J2,12,Pin_12*%
%TO.N,/D5*%
X198120000Y-63500000D03*
%TO.P,J2,13,Pin_13*%
%TO.N,GND*%
X195580000Y-66040000D03*
%TO.P,J2,14,Pin_14*%
%TO.N,/D6*%
X198120000Y-66040000D03*
%TO.P,J2,15,Pin_15*%
%TO.N,GND*%
X195580000Y-68580000D03*
%TO.P,J2,16,Pin_16*%
%TO.N,/D7*%
X198120000Y-68580000D03*
%TO.P,J2,17,Pin_17*%
%TO.N,GND*%
X195580000Y-71120000D03*
%TO.P,J2,18,Pin_18*%
%TO.N,/PARITY*%
X198120000Y-71120000D03*
%TO.P,J2,19,Pin_19*%
%TO.N,GND*%
X195580000Y-73660000D03*
%TO.P,J2,20,Pin_20*%
X198120000Y-73660000D03*
%TO.P,J2,21,Pin_21*%
%TO.N,unconnected-(J2-Pin_21-Pad21)*%
X195580000Y-76200000D03*
%TO.P,J2,22,Pin_22*%
%TO.N,GND*%
X198120000Y-76200000D03*
%TO.P,J2,23,Pin_23*%
%TO.N,unconnected-(J2-Pin_23-Pad23)*%
X195580000Y-78740000D03*
%TO.P,J2,24,Pin_24*%
%TO.N,unconnected-(J2-Pin_24-Pad24)*%
X198120000Y-78740000D03*
%TO.P,J2,25,Pin_25*%
%TO.N,unconnected-(J2-Pin_25-Pad25)*%
X195580000Y-81280000D03*
%TO.P,J2,26,Pin_26*%
%TO.N,/TERM*%
X198120000Y-81280000D03*
%TO.P,J2,27,Pin_27*%
%TO.N,unconnected-(J2-Pin_27-Pad27)*%
X195580000Y-83820000D03*
%TO.P,J2,28,Pin_28*%
%TO.N,unconnected-(J2-Pin_28-Pad28)*%
X198120000Y-83820000D03*
%TO.P,J2,29,Pin_29*%
%TO.N,GND*%
X195580000Y-86360000D03*
%TO.P,J2,30,Pin_30*%
X198120000Y-86360000D03*
%TO.P,J2,31,Pin_31*%
X195580000Y-88900000D03*
%TO.P,J2,32,Pin_32*%
%TO.N,/ATN*%
X198120000Y-88900000D03*
%TO.P,J2,33,Pin_33*%
%TO.N,GND*%
X195580000Y-91440000D03*
%TO.P,J2,34,Pin_34*%
X198120000Y-91440000D03*
%TO.P,J2,35,Pin_35*%
X195580000Y-93980000D03*
%TO.P,J2,36,Pin_36*%
%TO.N,/BSY*%
X198120000Y-93980000D03*
%TO.P,J2,37,Pin_37*%
%TO.N,GND*%
X195580000Y-96520000D03*
%TO.P,J2,38,Pin_38*%
%TO.N,/ACK*%
X198120000Y-96520000D03*
%TO.P,J2,39,Pin_39*%
%TO.N,GND*%
X195580000Y-99060000D03*
%TO.P,J2,40,Pin_40*%
%TO.N,/RST*%
X198120000Y-99060000D03*
%TO.P,J2,41,Pin_41*%
%TO.N,GND*%
X195580000Y-101600000D03*
%TO.P,J2,42,Pin_42*%
%TO.N,/MSG*%
X198120000Y-101600000D03*
%TO.P,J2,43,Pin_43*%
%TO.N,GND*%
X195580000Y-104140000D03*
%TO.P,J2,44,Pin_44*%
%TO.N,/SEL*%
X198120000Y-104140000D03*
%TO.P,J2,45,Pin_45*%
%TO.N,GND*%
X195580000Y-106680000D03*
%TO.P,J2,46,Pin_46*%
%TO.N,/CD*%
X198120000Y-106680000D03*
%TO.P,J2,47,Pin_47*%
%TO.N,GND*%
X195580000Y-109220000D03*
%TO.P,J2,48,Pin_48*%
%TO.N,/REQ*%
X198120000Y-109220000D03*
%TO.P,J2,49,Pin_49*%
%TO.N,GND*%
X195580000Y-111760000D03*
%TO.P,J2,50,Pin_50*%
%TO.N,/IO*%
X198120000Y-111760000D03*
%TD*%
D12*
%TO.P,J3,1,Pin_1*%
%TO.N,unconnected-(J3-Pin_1-Pad1)*%
X184120000Y-49000000D03*
D13*
%TO.P,J3,2,Pin_2*%
%TO.N,unconnected-(J3-Pin_2-Pad2)*%
X181580000Y-49000000D03*
%TO.P,J3,3,Pin_3*%
%TO.N,GND*%
X179040000Y-49000000D03*
%TO.P,J3,4,Pin_4*%
%TO.N,/VCC*%
X176500000Y-49000000D03*
%TD*%
D14*
%TO.P,J1,1,Pin_1*%
%TO.N,unconnected-(J1-Pin_1-Pad1)*%
X166500000Y-62000000D03*
D15*
%TO.P,J1,2,Pin_2*%
%TO.N,/VCC*%
X164500000Y-62000000D03*
%TO.P,J1,3,Pin_3*%
%TO.N,GND*%
X166500000Y-64000000D03*
%TO.P,J1,4,Pin_4*%
X164500000Y-64000000D03*
%TO.P,J1,5,Pin_5*%
X166500000Y-66000000D03*
%TO.P,J1,6,Pin_6*%
%TO.N,/D0*%
X164500000Y-66000000D03*
%TO.P,J1,7,Pin_7*%
%TO.N,GND*%
X166500000Y-68000000D03*
%TO.P,J1,8,Pin_8*%
%TO.N,/D1*%
X164500000Y-68000000D03*
%TO.P,J1,9,Pin_9*%
%TO.N,GND*%
X166500000Y-70000000D03*
%TO.P,J1,10,Pin_10*%
%TO.N,/D2*%
X164500000Y-70000000D03*
%TO.P,J1,11,Pin_11*%
%TO.N,GND*%
X166500000Y-72000000D03*
%TO.P,J1,12,Pin_12*%
%TO.N,/D3*%
X164500000Y-72000000D03*
%TO.P,J1,13,Pin_13*%
%TO.N,GND*%
X166500000Y-74000000D03*
%TO.P,J1,14,Pin_14*%
%TO.N,/D4*%
X164500000Y-74000000D03*
%TO.P,J1,15,Pin_15*%
%TO.N,GND*%
X166500000Y-76000000D03*
%TO.P,J1,16,Pin_16*%
%TO.N,/D5*%
X164500000Y-76000000D03*
%TO.P,J1,17,Pin_17*%
%TO.N,unconnected-(J1-Pin_17-Pad17)*%
X166500000Y-78000000D03*
%TO.P,J1,18,Pin_18*%
%TO.N,/D6*%
X164500000Y-78000000D03*
%TO.P,J1,19,Pin_19*%
%TO.N,GND*%
X166500000Y-80000000D03*
%TO.P,J1,20,Pin_20*%
%TO.N,/D7*%
X164500000Y-80000000D03*
%TO.P,J1,21,Pin_21*%
%TO.N,GND*%
X166500000Y-82000000D03*
%TO.P,J1,22,Pin_22*%
%TO.N,/PARITY*%
X164500000Y-82000000D03*
%TO.P,J1,23,Pin_23*%
%TO.N,GND*%
X166500000Y-84000000D03*
%TO.P,J1,24,Pin_24*%
%TO.N,/TERM*%
X164500000Y-84000000D03*
%TO.P,J1,25,Pin_25*%
%TO.N,/ATN*%
X166500000Y-86000000D03*
%TO.P,J1,26,Pin_26*%
%TO.N,/BSY*%
X164500000Y-86000000D03*
%TO.P,J1,27,Pin_27*%
%TO.N,GND*%
X166500000Y-88000000D03*
%TO.P,J1,28,Pin_28*%
%TO.N,/ACK*%
X164500000Y-88000000D03*
%TO.P,J1,29,Pin_29*%
%TO.N,/RST*%
X166500000Y-90000000D03*
%TO.P,J1,30,Pin_30*%
%TO.N,/MSG*%
X164500000Y-90000000D03*
%TO.P,J1,31,Pin_31*%
%TO.N,GND*%
X166500000Y-92000000D03*
%TO.P,J1,32,Pin_32*%
%TO.N,/SEL*%
X164500000Y-92000000D03*
%TO.P,J1,33,Pin_33*%
%TO.N,/IO*%
X166500000Y-94000000D03*
%TO.P,J1,34,Pin_34*%
%TO.N,/CD*%
X164500000Y-94000000D03*
%TO.P,J1,35,Pin_35*%
%TO.N,GND*%
X166500000Y-96000000D03*
%TO.P,J1,36,Pin_36*%
%TO.N,/REQ*%
X164500000Y-96000000D03*
%TO.P,J1,37,Pin_37*%
%TO.N,GND*%
X166500000Y-98000000D03*
%TO.P,J1,38,Pin_38*%
X164500000Y-98000000D03*
%TO.P,J1,39,Pin_39*%
%TO.N,unconnected-(J1-Pin_39-Pad39)*%
X166500000Y-100000000D03*
%TO.P,J1,40,Pin_40*%
%TO.N,unconnected-(J1-Pin_40-Pad40)*%
X164500000Y-100000000D03*
%TD*%
D16*
%TO.N,/IO*%
X196954900Y-112925100D02*
X198120000Y-111760000D01*
X186401800Y-112925100D02*
X196954900Y-112925100D01*
X167476700Y-94000000D02*
X186401800Y-112925100D01*
X166500000Y-94000000D02*
X167476700Y-94000000D01*
%TO.N,GND*%
X166500000Y-76000000D02*
X166500000Y-74000000D01*
X166500000Y-74000000D02*
X166500000Y-72000000D01*
X166500000Y-72000000D02*
X166500000Y-70000000D01*
X166500000Y-70000000D02*
X166500000Y-68000000D01*
X166500000Y-68000000D02*
X166500000Y-66000000D01*
X195580000Y-111760000D02*
X195580000Y-109220000D01*
X195580000Y-109220000D02*
X195580000Y-106680000D01*
X195580000Y-106680000D02*
X195580000Y-104140000D01*
X195580000Y-104140000D02*
X195580000Y-101600000D01*
X195580000Y-101600000D02*
X195580000Y-99060000D01*
X195580000Y-99060000D02*
X195580000Y-96520000D01*
X195580000Y-96520000D02*
X195580000Y-93980000D01*
X195580000Y-93980000D02*
X195580000Y-91440000D01*
X195580000Y-88900000D02*
X195580000Y-86360000D01*
X198120000Y-76200000D02*
X198120000Y-73660000D01*
X195580000Y-73660000D02*
X195580000Y-71120000D01*
X195580000Y-71120000D02*
X195580000Y-68580000D01*
X195580000Y-68580000D02*
X195580000Y-66040000D01*
X195580000Y-66040000D02*
X195580000Y-63500000D01*
X195580000Y-63500000D02*
X195580000Y-60960000D01*
X195580000Y-60960000D02*
X195580000Y-58420000D01*
X195580000Y-58420000D02*
X195580000Y-55880000D01*
X195580000Y-55880000D02*
X195580000Y-53340000D01*
X195580000Y-53340000D02*
X195580000Y-50800000D01*
X166500000Y-84000000D02*
X166500000Y-82000000D01*
X166500000Y-66000000D02*
X166500000Y-64000000D01*
X164500000Y-64000000D02*
X165476700Y-64000000D01*
X166500000Y-64000000D02*
X165476700Y-64000000D01*
X166500000Y-84000000D02*
X166500000Y-84976700D01*
X166500000Y-76000000D02*
X166500000Y-76976700D01*
X166500000Y-82000000D02*
X166500000Y-80000000D01*
X166095200Y-76976700D02*
X166500000Y-76976700D01*
X165500000Y-77571900D02*
X166095200Y-76976700D01*
X165500000Y-78389600D02*
X165500000Y-77571900D01*
X166133700Y-79023300D02*
X165500000Y-78389600D01*
X166500000Y-79023300D02*
X166133700Y-79023300D01*
X166500000Y-80000000D02*
X166500000Y-79023300D01*
X196929400Y-77390600D02*
X198120000Y-76200000D01*
X196929400Y-85289700D02*
X196929400Y-77390600D01*
X197049700Y-85289700D02*
X196929400Y-85289700D01*
X198120000Y-86360000D02*
X197049700Y-85289700D01*
X196650300Y-85289700D02*
X195580000Y-86360000D01*
X196929400Y-85289700D02*
X196650300Y-85289700D01*
X166500000Y-92000000D02*
X166500000Y-91023300D01*
X166500000Y-88000000D02*
X165523300Y-88000000D01*
X166095200Y-84976700D02*
X166500000Y-84976700D01*
X165523300Y-85548600D02*
X166095200Y-84976700D01*
X165523300Y-88000000D02*
X165523300Y-85548600D01*
X166500000Y-91023300D02*
X166133700Y-91023300D01*
X165523300Y-90412900D02*
X165523300Y-88000000D01*
X166133700Y-91023300D02*
X165523300Y-90412900D01*
X166500000Y-98000000D02*
X166500000Y-96000000D01*
X166133700Y-92816300D02*
X166133700Y-91023300D01*
X165523300Y-93426700D02*
X166133700Y-92816300D01*
X165523300Y-94413000D02*
X165523300Y-93426700D01*
X166133600Y-95023300D02*
X165523300Y-94413000D01*
X166500000Y-95023300D02*
X166133600Y-95023300D01*
X166500000Y-96000000D02*
X166500000Y-95023300D01*
%TD*%
M02*
