%TF.GenerationSoftware,KiCad,Pcbnew,8.0.1*%
%TF.CreationDate,2024-04-03T11:18:05-05:00*%
%TF.ProjectId,SCSI-Adapter,53435349-2d41-4646-9170-7465722e6b69,rev?*%
%TF.SameCoordinates,Original*%
%TF.FileFunction,Drillmap*%
%TF.FilePolarity,Positive*%
%FSLAX45Y45*%
G04 Gerber Fmt 4.5, Leading zero omitted, Abs format (unit mm)*
G04 Created by KiCad (PCBNEW 8.0.1) date 2024-04-03 11:18:05*
%MOMM*%
%LPD*%
G01*
G04 APERTURE LIST*
%ADD10C,0.050000*%
%ADD11C,0.200000*%
G04 APERTURE END LIST*
D10*
X15350000Y-3750000D02*
X20500000Y-3750000D01*
X20500000Y-12500000D01*
X15350000Y-12500000D01*
X15350000Y-3750000D01*
X15850000Y-4000000D02*
G75*
G02*
X15550000Y-4000000I-150000J0D01*
G01*
X15550000Y-4000000D02*
G75*
G02*
X15850000Y-4000000I150000J0D01*
G01*
X20300000Y-12250000D02*
G75*
G02*
X20000000Y-12250000I-150000J0D01*
G01*
X20000000Y-12250000D02*
G75*
G02*
X20300000Y-12250000I150000J0D01*
G01*
X20300000Y-4000000D02*
G75*
G02*
X20000000Y-4000000I-150000J0D01*
G01*
X20000000Y-4000000D02*
G75*
G02*
X20300000Y-4000000I150000J0D01*
G01*
X15850000Y-12250000D02*
G75*
G02*
X15550000Y-12250000I-150000J0D01*
G01*
X15550000Y-12250000D02*
G75*
G02*
X15850000Y-12250000I150000J0D01*
G01*
D11*
X15608277Y-12813984D02*
X15608277Y-12613984D01*
X15608277Y-12613984D02*
X15655896Y-12613984D01*
X15655896Y-12613984D02*
X15684467Y-12623508D01*
X15684467Y-12623508D02*
X15703515Y-12642555D01*
X15703515Y-12642555D02*
X15713039Y-12661603D01*
X15713039Y-12661603D02*
X15722562Y-12699698D01*
X15722562Y-12699698D02*
X15722562Y-12728269D01*
X15722562Y-12728269D02*
X15713039Y-12766365D01*
X15713039Y-12766365D02*
X15703515Y-12785412D01*
X15703515Y-12785412D02*
X15684467Y-12804460D01*
X15684467Y-12804460D02*
X15655896Y-12813984D01*
X15655896Y-12813984D02*
X15608277Y-12813984D01*
X15808277Y-12813984D02*
X15808277Y-12680650D01*
X15808277Y-12718746D02*
X15817801Y-12699698D01*
X15817801Y-12699698D02*
X15827324Y-12690174D01*
X15827324Y-12690174D02*
X15846372Y-12680650D01*
X15846372Y-12680650D02*
X15865420Y-12680650D01*
X15932086Y-12813984D02*
X15932086Y-12680650D01*
X15932086Y-12613984D02*
X15922562Y-12623508D01*
X15922562Y-12623508D02*
X15932086Y-12633031D01*
X15932086Y-12633031D02*
X15941610Y-12623508D01*
X15941610Y-12623508D02*
X15932086Y-12613984D01*
X15932086Y-12613984D02*
X15932086Y-12633031D01*
X16055896Y-12813984D02*
X16036848Y-12804460D01*
X16036848Y-12804460D02*
X16027324Y-12785412D01*
X16027324Y-12785412D02*
X16027324Y-12613984D01*
X16160658Y-12813984D02*
X16141610Y-12804460D01*
X16141610Y-12804460D02*
X16132086Y-12785412D01*
X16132086Y-12785412D02*
X16132086Y-12613984D01*
X16389229Y-12813984D02*
X16389229Y-12613984D01*
X16389229Y-12613984D02*
X16455896Y-12756841D01*
X16455896Y-12756841D02*
X16522562Y-12613984D01*
X16522562Y-12613984D02*
X16522562Y-12813984D01*
X16703515Y-12813984D02*
X16703515Y-12709222D01*
X16703515Y-12709222D02*
X16693991Y-12690174D01*
X16693991Y-12690174D02*
X16674943Y-12680650D01*
X16674943Y-12680650D02*
X16636848Y-12680650D01*
X16636848Y-12680650D02*
X16617801Y-12690174D01*
X16703515Y-12804460D02*
X16684467Y-12813984D01*
X16684467Y-12813984D02*
X16636848Y-12813984D01*
X16636848Y-12813984D02*
X16617801Y-12804460D01*
X16617801Y-12804460D02*
X16608277Y-12785412D01*
X16608277Y-12785412D02*
X16608277Y-12766365D01*
X16608277Y-12766365D02*
X16617801Y-12747317D01*
X16617801Y-12747317D02*
X16636848Y-12737793D01*
X16636848Y-12737793D02*
X16684467Y-12737793D01*
X16684467Y-12737793D02*
X16703515Y-12728269D01*
X16798753Y-12680650D02*
X16798753Y-12880650D01*
X16798753Y-12690174D02*
X16817801Y-12680650D01*
X16817801Y-12680650D02*
X16855896Y-12680650D01*
X16855896Y-12680650D02*
X16874944Y-12690174D01*
X16874944Y-12690174D02*
X16884467Y-12699698D01*
X16884467Y-12699698D02*
X16893991Y-12718746D01*
X16893991Y-12718746D02*
X16893991Y-12775888D01*
X16893991Y-12775888D02*
X16884467Y-12794936D01*
X16884467Y-12794936D02*
X16874944Y-12804460D01*
X16874944Y-12804460D02*
X16855896Y-12813984D01*
X16855896Y-12813984D02*
X16817801Y-12813984D01*
X16817801Y-12813984D02*
X16798753Y-12804460D01*
X16979705Y-12794936D02*
X16989229Y-12804460D01*
X16989229Y-12804460D02*
X16979705Y-12813984D01*
X16979705Y-12813984D02*
X16970182Y-12804460D01*
X16970182Y-12804460D02*
X16979705Y-12794936D01*
X16979705Y-12794936D02*
X16979705Y-12813984D01*
X16979705Y-12690174D02*
X16989229Y-12699698D01*
X16989229Y-12699698D02*
X16979705Y-12709222D01*
X16979705Y-12709222D02*
X16970182Y-12699698D01*
X16970182Y-12699698D02*
X16979705Y-12690174D01*
X16979705Y-12690174D02*
X16979705Y-12709222D01*
M02*
